<svg width="70" height="69" viewBox="0 0 70 69" fill="none" xmlns="http://www.w3.org/2000/svg">
<path fill-rule="evenodd" clip-rule="evenodd" d="M9.24756 12.8676C9.24756 10.5479 11.128 8.66748 13.4477 8.66748H19.9442V12.9461H15.2063C14.2784 12.9461 13.5262 13.6983 13.5262 14.6262V19.3641H9.24756V12.8676ZM56.3128 14.6262C56.3128 13.6983 55.5606 12.9461 54.6327 12.9461H49.8948V8.66748L56.3913 8.66748C58.7109 8.66748 60.5914 10.548 60.5914 12.8676V19.3641H56.3128V14.6262ZM22.3509 16.5563C25.8103 12.6925 31.3558 10.8068 39.1981 10.8068H40.5352L41.1369 12.0102L42.8083 15.4197C45.4334 15.7785 47.9603 16.8626 49.4937 19.2973C51.3234 22.2025 52.0341 26.292 52.0341 32.2001V34.1388C53.2557 35.3075 54.1734 36.8075 54.1734 38.6181H60.5914V42.8967H9.24756V38.6181H15.6655C15.6655 36.7971 16.5803 35.3037 17.8049 34.1388V32.2001C17.8049 25.8155 18.8915 20.42 22.3509 16.5563ZM34.9195 57.872C28.6427 57.872 23.7944 52.267 21.2144 47.1754H26.0948C28.2362 50.5555 31.4324 53.5934 34.9195 53.5934C38.4066 53.5934 41.6027 50.5555 43.7442 47.1754H48.6246C46.0445 52.267 41.1963 57.872 34.9195 57.872ZM13.4477 60.0113C11.128 60.0113 9.24756 58.1309 9.24756 55.8112V49.3147H13.5262V54.0526C13.5262 54.9805 14.2784 55.7327 15.2063 55.7327H19.9442V60.0113H13.4477ZM54.6327 55.7327C55.5606 55.7327 56.3128 54.9805 56.3128 54.0526V49.3147H60.5914V55.8112C60.5914 58.1309 58.7109 60.0113 56.3913 60.0113H49.8948V55.7327H54.6327ZM39.3987 18.1607L37.9279 15.2192C31.69 15.4364 27.7949 16.868 25.5599 19.3641C23.148 22.058 22.0835 26.3071 22.0835 32.2001V34.9411V36.1445L21.0139 36.7461C20.3575 37.1253 19.9442 37.8181 19.9442 38.6181H26.3622H30.6408H39.1981H43.4768H49.8948C49.8948 37.8046 49.4753 37.1217 48.8251 36.7461L47.7554 36.1445V34.9411V32.2001C47.7554 26.6799 46.9033 23.2956 45.8167 21.5703C45.4661 21.0136 45.0766 20.6233 44.6802 20.3001C44.6867 20.3433 44.6935 20.3855 44.7003 20.4273C44.7186 20.5411 44.7364 20.6516 44.747 20.7681C44.8712 22.132 44.4453 23.5836 43.5436 24.5119C41.9674 26.1348 40.055 26.2101 38.2377 26.2816C37.9761 26.2919 37.7164 26.3022 37.4599 26.3169C35.4226 26.4342 33.4443 26.6297 32.3122 27.1192C31.1801 27.6087 30.6584 27.8832 30.6408 30.0608H26.3622C26.3896 26.6579 28.2995 24.1582 30.574 23.1748C32.5405 22.3246 34.5937 22.229 36.3763 22.146C36.6555 22.133 36.928 22.1204 37.1925 22.1051C38.9961 22.0013 40.2661 21.5716 40.4463 21.5106C40.4613 21.5055 40.4684 21.5034 40.4684 21.5034C40.4656 21.5062 40.5143 21.6731 40.4684 21.1692C40.4225 20.6653 40.1234 19.6083 39.3987 18.1607Z" fill="#2954C2"/>
</svg>
