<svg width="248" height="44" viewBox="0 0 248 44" fill="none" xmlns="http://www.w3.org/2000/svg">
<mask id="path-1-outside-1_61_7" maskUnits="userSpaceOnUse" x="185.74" y="5.62207" width="62" height="38" fill="black">
<rect fill="white" x="185.74" y="5.62207" width="62" height="38"/>
<path d="M186.74 23.4883C186.74 21.5914 187.126 19.9116 187.897 18.449C188.691 16.9863 189.757 15.8551 191.095 15.0552C192.456 14.2324 193.953 13.8211 195.586 13.8211C197.06 13.8211 198.342 14.1182 199.431 14.7124C200.542 15.2837 201.427 16.0036 202.085 16.8721V16.0859C202.085 15.0055 202.96 14.1296 204.041 14.1296C205.121 14.1296 205.997 15.0055 205.997 16.0859V31.062C205.997 32.1425 205.121 33.0183 204.041 33.0183C202.96 33.0183 202.085 32.1425 202.085 31.062V30.2073C201.427 31.0986 200.531 31.8414 199.397 32.4356C198.263 33.0298 196.97 33.3269 195.518 33.3269C193.908 33.3269 192.433 32.9155 191.095 32.0928C189.757 31.2472 188.691 30.0816 187.897 28.5961C187.126 27.0878 186.74 25.3851 186.74 23.4883ZM202.085 23.5568C202.085 22.2542 201.812 21.1229 201.268 20.163C200.746 19.2032 200.054 18.4718 199.193 17.969C198.331 17.4663 197.401 17.2149 196.403 17.2149C195.405 17.2149 194.475 17.4663 193.613 17.969C192.751 18.449 192.048 19.1689 191.503 20.1287C190.982 21.0657 190.721 22.1856 190.721 23.4883C190.721 24.7909 190.982 25.9336 191.503 26.9163C192.048 27.8991 192.751 28.6532 193.613 29.1789C194.497 29.6817 195.427 29.9331 196.403 29.9331C197.401 29.9331 198.331 29.6817 199.193 29.1789C200.054 28.6761 200.746 27.9448 201.268 26.9849C201.812 26.0022 202.085 24.8595 202.085 23.5568Z"/>
<path d="M218.708 13.8591C220.159 13.8591 221.441 14.1562 222.552 14.7504C223.687 15.3217 224.571 16.0416 225.206 16.9101V16.124C225.206 15.0435 226.082 14.1676 227.163 14.1676C228.243 14.1676 229.119 15.0435 229.119 16.124V33.3649C229.119 35.1018 228.756 36.6444 228.03 37.9928C227.304 39.3641 226.25 40.4382 224.866 41.2152C223.505 41.9923 221.872 42.3808 219.967 42.3808C217.426 42.3808 215.317 41.7752 213.638 40.5639C212.28 39.6024 211.805 38.9805 211.414 37.7373C211.229 37.1481 211.491 36.5166 212.011 36.1834C212.875 35.6296 214.01 36.208 214.733 36.9356C215.279 37.485 215.949 37.7203 216.496 38.0614C217.472 38.6784 218.628 38.987 219.967 38.987C221.532 38.987 222.791 38.507 223.743 37.5472C224.719 36.5873 225.206 35.1932 225.206 33.3649V30.2111C224.548 31.1024 223.652 31.8566 222.518 32.4736C221.407 33.0678 220.137 33.3649 218.708 33.3649C217.075 33.3649 215.578 32.9535 214.217 32.1308C212.878 31.2852 211.812 30.1197 211.019 28.6341C210.247 27.1258 209.862 25.4232 209.862 23.5263C209.862 21.6294 210.247 19.9497 211.019 18.487C211.812 17.0244 212.878 15.8931 214.217 15.0932C215.578 14.2705 217.075 13.8591 218.708 13.8591ZM225.206 23.5949C225.206 22.2922 224.934 21.1609 224.39 20.2011C223.868 19.2412 223.176 18.5099 222.314 18.0071C221.452 17.5043 220.522 17.2529 219.524 17.2529C218.526 17.2529 217.596 17.5043 216.734 18.0071C215.872 18.487 215.169 19.2069 214.625 20.1668C214.103 21.1038 213.842 22.2236 213.842 23.5263C213.842 24.829 214.103 25.9717 214.625 26.9544C215.169 27.9371 215.872 28.6913 216.734 29.2169C217.619 29.7197 218.549 29.9711 219.524 29.9711C220.522 29.9711 221.452 29.7197 222.314 29.2169C223.176 28.7141 223.868 27.9828 224.39 27.0229C224.934 26.0402 225.206 24.8975 225.206 23.5949Z"/>
<path d="M236.124 11.6271C235.421 11.6271 234.831 11.3871 234.355 10.9072C233.878 10.4272 233.64 9.83305 233.64 9.12457C233.64 8.4161 233.878 7.8219 234.355 7.34197C234.831 6.86204 235.421 6.62207 236.124 6.62207C236.804 6.62207 237.383 6.86204 237.859 7.34197C238.335 7.8219 238.573 8.4161 238.573 9.12457C238.573 9.83305 238.335 10.4272 237.859 10.9072C237.383 11.3871 236.804 11.6271 236.124 11.6271ZM236.09 14.1296C237.161 14.1296 238.029 14.9979 238.029 16.0689V31.079C238.029 32.1501 237.161 33.0183 236.09 33.0183C235.019 33.0183 234.15 32.1501 234.15 31.079V16.0689C234.15 14.9979 235.019 14.1296 236.09 14.1296Z"/>
<path d="M245.061 7.6505C246.132 7.6505 247 8.51876 247 9.58983V31.079C247 32.1501 246.132 33.0183 245.061 33.0183C243.99 33.0183 243.121 32.1501 243.121 31.079V9.58982C243.121 8.51876 243.99 7.6505 245.061 7.6505Z"/>
</mask>
<path d="M186.74 23.4883C186.74 21.5914 187.126 19.9116 187.897 18.449C188.691 16.9863 189.757 15.8551 191.095 15.0552C192.456 14.2324 193.953 13.8211 195.586 13.8211C197.06 13.8211 198.342 14.1182 199.431 14.7124C200.542 15.2837 201.427 16.0036 202.085 16.8721V16.0859C202.085 15.0055 202.96 14.1296 204.041 14.1296C205.121 14.1296 205.997 15.0055 205.997 16.0859V31.062C205.997 32.1425 205.121 33.0183 204.041 33.0183C202.96 33.0183 202.085 32.1425 202.085 31.062V30.2073C201.427 31.0986 200.531 31.8414 199.397 32.4356C198.263 33.0298 196.97 33.3269 195.518 33.3269C193.908 33.3269 192.433 32.9155 191.095 32.0928C189.757 31.2472 188.691 30.0816 187.897 28.5961C187.126 27.0878 186.74 25.3851 186.74 23.4883ZM202.085 23.5568C202.085 22.2542 201.812 21.1229 201.268 20.163C200.746 19.2032 200.054 18.4718 199.193 17.969C198.331 17.4663 197.401 17.2149 196.403 17.2149C195.405 17.2149 194.475 17.4663 193.613 17.969C192.751 18.449 192.048 19.1689 191.503 20.1287C190.982 21.0657 190.721 22.1856 190.721 23.4883C190.721 24.7909 190.982 25.9336 191.503 26.9163C192.048 27.8991 192.751 28.6532 193.613 29.1789C194.497 29.6817 195.427 29.9331 196.403 29.9331C197.401 29.9331 198.331 29.6817 199.193 29.1789C200.054 28.6761 200.746 27.9448 201.268 26.9849C201.812 26.0022 202.085 24.8595 202.085 23.5568Z" fill="#FAFAFA"/>
<path d="M218.708 13.8591C220.159 13.8591 221.441 14.1562 222.552 14.7504C223.687 15.3217 224.571 16.0416 225.206 16.9101V16.124C225.206 15.0435 226.082 14.1676 227.163 14.1676C228.243 14.1676 229.119 15.0435 229.119 16.124V33.3649C229.119 35.1018 228.756 36.6444 228.03 37.9928C227.304 39.3641 226.25 40.4382 224.866 41.2152C223.505 41.9923 221.872 42.3808 219.967 42.3808C217.426 42.3808 215.317 41.7752 213.638 40.5639C212.28 39.6024 211.805 38.9805 211.414 37.7373C211.229 37.1481 211.491 36.5166 212.011 36.1834C212.875 35.6296 214.01 36.208 214.733 36.9356C215.279 37.485 215.949 37.7203 216.496 38.0614C217.472 38.6784 218.628 38.987 219.967 38.987C221.532 38.987 222.791 38.507 223.743 37.5472C224.719 36.5873 225.206 35.1932 225.206 33.3649V30.2111C224.548 31.1024 223.652 31.8566 222.518 32.4736C221.407 33.0678 220.137 33.3649 218.708 33.3649C217.075 33.3649 215.578 32.9535 214.217 32.1308C212.878 31.2852 211.812 30.1197 211.019 28.6341C210.247 27.1258 209.862 25.4232 209.862 23.5263C209.862 21.6294 210.247 19.9497 211.019 18.487C211.812 17.0244 212.878 15.8931 214.217 15.0932C215.578 14.2705 217.075 13.8591 218.708 13.8591ZM225.206 23.5949C225.206 22.2922 224.934 21.1609 224.39 20.2011C223.868 19.2412 223.176 18.5099 222.314 18.0071C221.452 17.5043 220.522 17.2529 219.524 17.2529C218.526 17.2529 217.596 17.5043 216.734 18.0071C215.872 18.487 215.169 19.2069 214.625 20.1668C214.103 21.1038 213.842 22.2236 213.842 23.5263C213.842 24.829 214.103 25.9717 214.625 26.9544C215.169 27.9371 215.872 28.6913 216.734 29.2169C217.619 29.7197 218.549 29.9711 219.524 29.9711C220.522 29.9711 221.452 29.7197 222.314 29.2169C223.176 28.7141 223.868 27.9828 224.39 27.0229C224.934 26.0402 225.206 24.8975 225.206 23.5949Z" fill="#FAFAFA"/>
<path d="M236.124 11.6271C235.421 11.6271 234.831 11.3871 234.355 10.9072C233.878 10.4272 233.64 9.83305 233.64 9.12457C233.64 8.4161 233.878 7.8219 234.355 7.34197C234.831 6.86204 235.421 6.62207 236.124 6.62207C236.804 6.62207 237.383 6.86204 237.859 7.34197C238.335 7.8219 238.573 8.4161 238.573 9.12457C238.573 9.83305 238.335 10.4272 237.859 10.9072C237.383 11.3871 236.804 11.6271 236.124 11.6271ZM236.09 14.1296C237.161 14.1296 238.029 14.9979 238.029 16.0689V31.079C238.029 32.1501 237.161 33.0183 236.09 33.0183C235.019 33.0183 234.15 32.1501 234.15 31.079V16.0689C234.15 14.9979 235.019 14.1296 236.09 14.1296Z" fill="#FAFAFA"/>
<path d="M245.061 7.6505C246.132 7.6505 247 8.51876 247 9.58983V31.079C247 32.1501 246.132 33.0183 245.061 33.0183C243.99 33.0183 243.121 32.1501 243.121 31.079V9.58982C243.121 8.51876 243.99 7.6505 245.061 7.6505Z" fill="#FAFAFA"/>
<path d="M187.897 18.449L187.315 18.1331L187.311 18.1401L187.897 18.449ZM191.095 15.0552L191.435 15.6236L191.438 15.6219L191.095 15.0552ZM199.431 14.7124L199.113 15.2936L199.121 15.2975L199.128 15.3013L199.431 14.7124ZM202.085 16.8721L201.557 17.2719L202.747 18.8431V16.8721H202.085ZM202.085 30.2073H202.747V28.1949L201.552 29.8141L202.085 30.2073ZM199.397 32.4356L199.089 31.849L199.397 32.4356ZM191.095 32.0928L190.741 32.6526L190.748 32.6569L191.095 32.0928ZM187.897 28.5961L187.307 28.8976L187.313 28.9082L187.897 28.5961ZM201.268 20.163L200.686 20.4793L200.692 20.4897L201.268 20.163ZM199.193 17.969L198.859 18.541L199.193 17.969ZM193.613 17.969L193.935 18.5477L193.946 18.541L193.613 17.969ZM191.503 20.1287L190.927 19.8021L190.925 19.8066L191.503 20.1287ZM191.503 26.9163L190.918 27.2269L190.924 27.2372L191.503 26.9163ZM193.613 29.1789L193.268 29.7442L193.277 29.7496L193.285 29.7546L193.613 29.1789ZM199.193 29.1789L199.526 29.7509L199.193 29.1789ZM201.268 26.9849L200.689 26.664L200.686 26.6687L201.268 26.9849ZM222.552 14.7504L222.24 15.3344L222.247 15.3382L222.254 15.3418L222.552 14.7504ZM225.206 16.9101L224.672 17.301L225.868 18.9374V16.9101H225.206ZM228.03 37.9928L227.447 37.6789L227.445 37.683L228.03 37.9928ZM224.866 41.2152L224.542 40.6378L224.538 40.6402L224.866 41.2152ZM213.638 40.5639L214.026 40.0269L214.021 40.0234L213.638 40.5639ZM216.496 38.0614L216.85 37.5018L216.847 37.4995L216.496 38.0614ZM223.743 37.5472L223.279 37.0752L223.273 37.0807L223.743 37.5472ZM225.206 30.2111H225.868V28.1986L224.673 29.8179L225.206 30.2111ZM222.518 32.4736L222.831 33.0576L222.835 33.0553L222.518 32.4736ZM214.217 32.1308L213.863 32.6907L213.874 32.6975L214.217 32.1308ZM211.019 28.6341L210.429 28.9357L210.434 28.9463L211.019 28.6341ZM211.019 18.487L210.436 18.1711L210.433 18.1782L211.019 18.487ZM214.217 15.0932L214.556 15.6616L214.559 15.6599L214.217 15.0932ZM224.39 20.2011L223.808 20.5173L223.814 20.5277L224.39 20.2011ZM222.314 18.0071L221.981 18.5791L222.314 18.0071ZM216.734 18.0071L217.057 18.5857L217.068 18.5791L216.734 18.0071ZM214.625 20.1668L214.049 19.8401L214.046 19.8446L214.625 20.1668ZM214.625 26.9544L214.04 27.2649L214.046 27.2753L214.625 26.9544ZM216.734 29.2169L216.39 29.7823L216.398 29.7876L216.407 29.7926L216.734 29.2169ZM222.314 29.2169L222.648 29.7889V29.7889L222.314 29.2169ZM224.39 27.0229L223.81 26.7021L223.808 26.7067L224.39 27.0229ZM234.355 10.9072L234.825 10.4407V10.4407L234.355 10.9072ZM234.355 7.34197L234.825 7.80845V7.80845L234.355 7.34197ZM237.859 7.34197L237.389 7.80845V7.80845L237.859 7.34197ZM237.859 10.9072L237.389 10.4407V10.4407L237.859 10.9072ZM214.733 36.9356L215.203 36.4688L214.733 36.9356ZM211.414 37.7373L210.782 37.9356L211.414 37.7373ZM187.402 23.4883C187.402 21.6831 187.768 20.1121 188.483 18.7578L187.311 18.1401C186.483 19.7112 186.078 21.4997 186.078 23.4883H187.402ZM188.479 18.7649C189.22 17.3993 190.205 16.3584 191.435 15.6236L190.755 14.4868C189.308 15.3517 188.161 16.5734 187.315 18.1331L188.479 18.7649ZM191.438 15.6219C192.692 14.8633 194.07 14.4833 195.586 14.4833V13.1589C193.836 13.1589 192.22 13.6015 190.752 14.4885L191.438 15.6219ZM195.586 14.4833C196.97 14.4833 198.139 14.7617 199.113 15.2936L199.748 14.1311C198.545 13.4746 197.15 13.1589 195.586 13.1589V14.4833ZM199.128 15.3013C200.164 15.8339 200.967 16.4934 201.557 17.2719L202.612 16.4722C201.886 15.5138 200.92 14.7335 199.733 14.1234L199.128 15.3013ZM202.747 16.8721V16.0859H201.422V16.8721H202.747ZM205.335 16.0859V31.062H206.659V16.0859H205.335ZM202.747 31.062V30.2073H201.422V31.062H202.747ZM201.552 29.8141C200.962 30.613 200.148 31.2941 199.089 31.849L199.704 33.0221C200.913 32.3886 201.891 31.5842 202.617 30.6005L201.552 29.8141ZM199.089 31.849C198.062 32.3872 196.877 32.6647 195.518 32.6647V33.9891C197.062 33.9891 198.463 33.6723 199.704 33.0221L199.089 31.849ZM195.518 32.6647C194.027 32.6647 192.673 32.2856 191.442 31.5286L190.748 32.6569C192.193 33.5454 193.788 33.9891 195.518 33.9891V32.6647ZM191.449 31.533C190.214 30.7525 189.224 29.6751 188.481 28.284L187.313 28.9082C188.157 30.4881 189.3 31.7418 190.741 32.6526L191.449 31.533ZM188.486 28.2947C187.768 26.8903 187.402 25.293 187.402 23.4883H186.078C186.078 25.4773 186.483 27.2852 187.307 28.8976L188.486 28.2947ZM202.747 23.5568C202.747 22.1604 202.454 20.9124 201.844 19.8363L200.692 20.4897C201.17 21.3333 201.422 22.3479 201.422 23.5568H202.747ZM201.85 19.8468C201.276 18.791 200.502 17.9665 199.526 17.397L198.859 18.541C199.606 18.9771 200.217 19.6153 200.686 20.4792L201.85 19.8468ZM199.526 17.397C198.563 16.8352 197.518 16.5527 196.403 16.5527V17.8771C197.283 17.8771 198.098 18.0973 198.859 18.541L199.526 17.397ZM196.403 16.5527C195.287 16.5527 194.242 16.8352 193.279 17.397L193.946 18.541C194.707 18.0973 195.522 17.8771 196.403 17.8771V16.5527ZM193.291 17.3905C192.31 17.9363 191.524 18.7494 190.927 19.8021L192.079 20.4554C192.571 19.5883 193.191 18.9616 193.935 18.5476L193.291 17.3905ZM190.925 19.8066C190.338 20.8612 190.059 22.0969 190.059 23.4883H191.383C191.383 22.2743 191.626 21.2703 192.082 20.4509L190.925 19.8066ZM190.059 23.4883C190.059 24.8807 190.338 26.1334 190.918 27.2268L192.088 26.6059C191.625 25.7339 191.383 24.7012 191.383 23.4883H190.059ZM190.924 27.2372C191.518 28.3088 192.297 29.1523 193.268 29.7442L193.957 28.6135C193.204 28.1542 192.578 27.4893 192.083 26.5955L190.924 27.2372ZM193.285 29.7546C194.265 30.3115 195.307 30.5953 196.403 30.5953V29.2709C195.547 29.2709 194.729 29.0518 193.94 28.6032L193.285 29.7546ZM196.403 30.5953C197.518 30.5953 198.563 30.3128 199.526 29.7509L198.859 28.6069C198.098 29.0506 197.283 29.2709 196.403 29.2709V30.5953ZM199.526 29.7509C200.502 29.1814 201.276 28.3569 201.85 27.3011L200.686 26.6687C200.217 27.5326 199.606 28.1708 198.859 28.6069L199.526 29.7509ZM201.847 27.3058C202.454 26.2102 202.747 24.9537 202.747 23.5568H201.422C201.422 24.7653 201.171 25.7942 200.689 26.664L201.847 27.3058ZM218.708 14.5213C220.067 14.5213 221.239 14.7988 222.24 15.3344L222.865 14.1664C221.643 13.5135 220.252 13.1969 218.708 13.1969V14.5213ZM222.254 15.3418C223.312 15.8744 224.109 16.5311 224.672 17.301L225.741 16.5192C225.034 15.5521 224.061 14.769 222.85 14.159L222.254 15.3418ZM225.868 16.9101V16.124H224.544V16.9101H225.868ZM228.457 16.124V33.3649H229.781V16.124H228.457ZM228.457 33.3649C228.457 35.0071 228.114 36.4394 227.447 37.679L228.613 38.3067C229.398 36.8495 229.781 35.1965 229.781 33.3649H228.457ZM227.445 37.683C226.78 38.9392 225.817 39.9216 224.542 40.6379L225.19 41.7926C226.682 40.9548 227.829 39.789 228.615 38.3026L227.445 37.683ZM224.538 40.6402C223.296 41.349 221.782 41.7186 219.967 41.7186V43.043C221.962 43.043 223.714 42.6356 225.194 41.7903L224.538 40.6402ZM219.967 41.7186C217.533 41.7186 215.568 41.1398 214.026 40.0269L213.251 41.1009C215.066 42.4105 217.319 43.043 219.967 43.043V41.7186ZM214.021 40.0234C213.362 39.557 212.964 39.2047 212.685 38.848C212.412 38.5 212.227 38.1138 212.046 37.5389L210.782 37.9356C210.992 38.604 211.239 39.1503 211.642 39.6644C212.038 40.1698 212.556 40.6093 213.256 41.1043L214.021 40.0234ZM214.264 37.4024C214.599 37.7398 214.963 37.9711 215.291 38.1546C215.657 38.3589 215.882 38.4589 216.146 38.6233L216.847 37.4995C216.563 37.3228 216.181 37.1346 215.938 36.9987C215.657 36.8419 215.414 36.6808 215.203 36.4688L214.264 37.4024ZM216.142 38.621C217.239 39.3152 218.523 39.6492 219.967 39.6492V38.3248C218.733 38.3248 217.704 38.0417 216.85 37.5018L216.142 38.621ZM219.967 39.6492C221.678 39.6492 223.117 39.1186 224.213 38.0137L223.273 37.0807C222.465 37.8954 221.385 38.3248 219.967 38.3248V39.6492ZM224.208 38.0191C225.348 36.8973 225.868 35.309 225.868 33.3649H224.544C224.544 35.0775 224.089 36.2773 223.279 37.0752L224.208 38.0191ZM225.868 33.3649V30.2111H224.544V33.3649H225.868ZM224.673 29.8179C224.082 30.6194 223.265 31.3135 222.202 31.8919L222.835 33.0553C224.04 32.3996 225.015 31.5853 225.739 30.6043L224.673 29.8179ZM222.206 31.8896C221.203 32.4259 220.043 32.7027 218.708 32.7027V34.0271C220.231 34.0271 221.611 33.7097 222.831 33.0576L222.206 31.8896ZM218.708 32.7027C217.192 32.7027 215.814 32.3226 214.559 31.5641L213.874 32.6975C215.341 33.5845 216.957 34.0271 218.708 34.0271V32.7027ZM214.57 31.571C213.335 30.7906 212.346 29.7131 211.603 28.322L210.434 28.9463C211.279 30.5262 212.422 31.7798 213.863 32.6906L214.57 31.571ZM211.608 28.3327C210.89 26.9283 210.524 25.3311 210.524 23.5263H209.2C209.2 25.5153 209.605 27.3232 210.429 28.9356L211.608 28.3327ZM210.524 23.5263C210.524 21.7211 210.89 20.1501 211.604 18.7959L210.433 18.1782C209.604 19.7492 209.2 21.5377 209.2 23.5263H210.524ZM211.601 18.8029C212.342 17.4373 213.327 16.3964 214.556 15.6616L213.877 14.5248C212.43 15.3897 211.283 16.6114 210.437 18.1711L211.601 18.8029ZM214.559 15.6599C215.814 14.9014 217.192 14.5213 218.708 14.5213V13.1969C216.957 13.1969 215.341 13.6395 213.874 14.5265L214.559 15.6599ZM225.868 23.5949C225.868 22.1984 225.576 20.9505 224.966 19.8744L223.814 20.5277C224.292 21.3714 224.544 22.3859 224.544 23.5949H225.868ZM224.971 19.8848C224.398 18.8291 223.624 18.0046 222.648 17.4351L221.981 18.5791C222.728 19.0152 223.338 19.6533 223.808 20.5173L224.971 19.8848ZM222.648 17.4351C221.685 16.8732 220.64 16.5907 219.524 16.5907V17.9151C220.405 17.9151 221.22 18.1354 221.981 18.5791L222.648 17.4351ZM219.524 16.5907C218.409 16.5907 217.364 16.8732 216.401 17.4351L217.068 18.5791C217.829 18.1354 218.644 17.9151 219.524 17.9151V16.5907ZM216.412 17.4285C215.432 17.9743 214.646 18.7874 214.049 19.8401L215.201 20.4934C215.693 19.6264 216.313 18.9997 217.057 18.5856L216.412 17.4285ZM214.046 19.8446C213.459 20.8992 213.18 22.1349 213.18 23.5263H214.505C214.505 22.3123 214.747 21.3083 215.204 20.4889L214.046 19.8446ZM213.18 23.5263C213.18 24.9187 213.46 26.1714 214.04 27.2649L215.21 26.6439C214.747 25.7719 214.505 24.7392 214.505 23.5263H213.18ZM214.046 27.2753C214.639 28.3468 215.419 29.1903 216.39 29.7823L217.079 28.6516C216.326 28.1922 215.699 27.5274 215.204 26.6335L214.046 27.2753ZM216.407 29.7926C217.387 30.3496 218.429 30.6333 219.524 30.6333V29.3089C218.669 29.3089 217.851 29.0899 217.062 28.6412L216.407 29.7926ZM219.524 30.6333C220.64 30.6333 221.685 30.3508 222.648 29.7889L221.981 28.6449C221.22 29.0886 220.405 29.3089 219.524 29.3089V30.6333ZM222.648 29.7889C223.624 29.2194 224.398 28.3949 224.971 27.3392L223.808 26.7067C223.338 27.5707 222.728 28.2088 221.981 28.6449L222.648 29.7889ZM224.969 27.3438C225.576 26.2482 225.868 24.9917 225.868 23.5949H224.544C224.544 24.8033 224.292 25.8322 223.81 26.7021L224.969 27.3438ZM236.124 10.9649C235.589 10.9649 235.171 10.7899 234.825 10.4407L233.885 11.3737C234.491 11.9843 235.252 12.2893 236.124 12.2893V10.9649ZM234.825 10.4407C234.478 10.0912 234.302 9.66757 234.302 9.12457H232.978C232.978 9.99853 233.279 10.7632 233.885 11.3737L234.825 10.4407ZM234.302 9.12457C234.302 8.58158 234.478 8.1579 234.825 7.80845L233.885 6.87549C233.279 7.4859 232.978 8.25062 232.978 9.12457H234.302ZM234.825 7.80845C235.171 7.45925 235.589 7.28427 236.124 7.28427V5.95987C235.252 5.95987 234.491 6.26482 233.885 6.87549L234.825 7.80845ZM236.124 7.28427C236.629 7.28427 237.038 7.45467 237.389 7.80845L238.329 6.87549C237.727 6.2694 236.979 5.95987 236.124 5.95987V7.28427ZM237.389 7.80845C237.736 8.1579 237.911 8.58158 237.911 9.12457H239.236C239.236 8.25063 238.935 7.4859 238.329 6.87549L237.389 7.80845ZM237.911 9.12457C237.911 9.66757 237.736 10.0912 237.389 10.4407L238.329 11.3737C238.935 10.7632 239.236 9.99852 239.236 9.12457H237.911ZM237.389 10.4407C237.038 10.7945 236.629 10.9649 236.124 10.9649V12.2893C236.979 12.2893 237.727 11.9797 238.329 11.3737L237.389 10.4407ZM237.367 16.0689V31.079H238.691V16.0689H237.367ZM234.813 31.079V16.0689H233.488V31.079H234.813ZM246.338 9.58983V31.079H247.662V9.58983H246.338ZM243.784 31.079V9.58982H242.459V31.079H243.784ZM234.813 16.0689C234.813 15.3636 235.384 14.7918 236.09 14.7918V13.4674C234.653 13.4674 233.488 14.6321 233.488 16.0689H234.813ZM238.691 16.0689C238.691 14.6321 237.527 13.4674 236.09 13.4674V14.7918C236.795 14.7918 237.367 15.3636 237.367 16.0689H238.691ZM212.369 36.7408C212.578 36.6066 212.851 36.5816 213.209 36.705C213.573 36.8305 213.954 37.0911 214.264 37.4024L215.203 36.4688C214.789 36.0524 214.241 35.6601 213.641 35.453C213.034 35.2437 212.308 35.2064 211.654 35.6259L212.369 36.7408ZM212.046 37.5389C211.959 37.2622 212.075 36.929 212.369 36.7408L211.654 35.6259C210.908 36.1043 210.499 37.0341 210.782 37.9356L212.046 37.5389ZM245.061 32.3561C244.355 32.3561 243.784 31.7844 243.784 31.079H242.459C242.459 32.5158 243.624 33.6805 245.061 33.6805V32.3561ZM227.163 14.8298C227.877 14.8298 228.457 15.4092 228.457 16.124H229.781C229.781 14.6778 228.609 13.5054 227.163 13.5054V14.8298ZM205.335 31.062C205.335 31.7767 204.756 32.3561 204.041 32.3561V33.6805C205.487 33.6805 206.659 32.5082 206.659 31.062H205.335ZM246.338 31.079C246.338 31.7844 245.766 32.3561 245.061 32.3561V33.6805C246.497 33.6805 247.662 32.5158 247.662 31.079H246.338ZM204.041 14.7918C204.756 14.7918 205.335 15.3712 205.335 16.0859H206.659C206.659 14.6397 205.487 13.4674 204.041 13.4674V14.7918ZM225.868 16.124C225.868 15.4092 226.448 14.8298 227.163 14.8298V13.5054C225.716 13.5054 224.544 14.6778 224.544 16.124H225.868ZM243.784 9.58982C243.784 8.88449 244.355 8.3127 245.061 8.3127V6.9883C243.624 6.9883 242.459 8.15304 242.459 9.58982H243.784ZM204.041 32.3561C203.326 32.3561 202.747 31.7767 202.747 31.062H201.422C201.422 32.5082 202.595 33.6805 204.041 33.6805V32.3561ZM236.09 32.3561C235.384 32.3561 234.813 31.7844 234.813 31.079H233.488C233.488 32.5158 234.653 33.6805 236.09 33.6805V32.3561ZM237.367 31.079C237.367 31.7844 236.795 32.3561 236.09 32.3561V33.6805C237.527 33.6805 238.691 32.5158 238.691 31.079H237.367ZM247.662 9.58983C247.662 8.15304 246.497 6.9883 245.061 6.9883V8.3127C245.766 8.3127 246.338 8.88449 246.338 9.58983H247.662ZM202.747 16.0859C202.747 15.3712 203.326 14.7918 204.041 14.7918V13.4674C202.595 13.4674 201.422 14.6397 201.422 16.0859H202.747Z" fill="#FAFAFA" mask="url(#path-1-outside-1_61_7)"/>
<path d="M199.482 1.82438C200.272 0.816801 201.728 0.639991 202.736 1.42946C203.744 2.21893 203.92 3.67572 203.131 4.6833L201.089 7.28955C200.299 8.29713 198.843 8.47394 197.835 7.68447C196.827 6.895 196.651 5.4382 197.44 4.43063L199.482 1.82438Z" fill="#FAFAFA"/>
<mask id="path-4-outside-2_61_7" maskUnits="userSpaceOnUse" x="61.9089" y="6.28418" width="117" height="28" fill="black">
<rect fill="white" x="61.9089" y="6.28418" width="117" height="28"/>
<path d="M82.2376 23.2335C82.2376 24.379 81.253 25.2139 80.1076 25.2139H67.1093C67.2279 26.77 67.8093 28.0195 68.8535 28.9626C69.8976 29.9056 71.1791 30.3771 72.6978 30.3771C74.3683 30.3771 75.6636 29.8458 76.5839 28.783C77.1269 28.156 77.8499 27.6541 78.6793 27.6541C80.1685 27.6541 81.2074 29.1374 80.2913 30.3114C79.7819 30.9643 79.1729 31.552 78.4644 32.0746C76.9219 33.2063 74.9997 33.7721 72.6978 33.7721C70.8231 33.7721 69.1382 33.3595 67.6432 32.5344C66.1719 31.6856 65.0091 30.5068 64.1548 28.9979C63.3242 27.4655 62.9089 25.6972 62.9089 23.6933C62.9089 21.6893 63.3124 19.9328 64.1192 18.424C64.9498 16.8915 66.1007 15.7127 67.572 14.8875C69.0671 14.0624 70.7757 13.6498 72.6978 13.6498C74.5488 13.6498 76.1981 14.0506 77.6457 14.8522C79.0933 15.6538 80.2205 16.7854 81.0273 18.2471C81.8342 19.6853 82.2376 21.3474 82.2376 23.2335ZM78.0017 21.9604C77.9779 20.4751 77.444 19.2845 76.3998 18.3886C75.3557 17.4927 74.0624 17.0448 72.5199 17.0448C71.1198 17.0448 69.9214 17.4927 68.9247 18.3886C67.928 19.2609 67.3347 20.4515 67.1449 21.9604H78.0017Z"/>
<path d="M93.3502 33.7721C91.8077 33.7721 90.4195 33.501 89.1855 32.9587C87.9752 32.3929 87.0141 31.6385 86.3022 30.6954C86.0518 30.3554 85.8425 30.0022 85.6743 29.636C85.1658 28.5288 86.1776 27.4773 87.3959 27.4773C88.5089 27.4773 89.3977 28.4267 90.169 29.2292C90.2806 29.3453 90.4036 29.4569 90.5381 29.5638C91.2738 30.106 92.1874 30.3771 93.279 30.3771C94.4181 30.3771 95.2961 30.1649 95.9131 29.7406C96.5539 29.2926 96.8742 28.7268 96.8742 28.0431C96.8742 27.3122 96.5183 26.77 95.8064 26.4163C95.1182 26.0627 94.0147 25.6737 92.4959 25.2493C91.0246 24.8485 89.8262 24.4595 88.9007 24.0823C87.9752 23.705 87.1684 23.1274 86.4802 22.3494C85.8157 21.5714 85.4835 20.5458 85.4835 19.2727C85.4835 18.2354 85.792 17.2923 86.409 16.4436C87.026 15.5712 87.904 14.8875 89.0431 14.3924C90.2059 13.8973 91.5348 13.6498 93.0299 13.6498C95.2606 13.6498 97.0522 14.2156 98.4049 15.3473C99.2336 16.0144 99.83 16.8312 100.194 17.7975C100.609 18.898 99.6266 19.9093 98.4505 19.9093C97.379 19.9093 96.563 18.9875 95.8584 18.1802C95.7473 18.053 95.6232 17.9338 95.486 17.8228C94.8453 17.3041 93.9791 17.0448 92.8875 17.0448C91.8196 17.0448 91.0009 17.2452 90.4314 17.6459C89.8618 18.0467 89.577 18.5772 89.577 19.2373C89.577 19.756 89.7669 20.1922 90.1466 20.5458C90.5263 20.8995 90.989 21.1824 91.5348 21.3946C92.0806 21.5832 92.8875 21.8307 93.9554 22.1372C95.3792 22.5144 96.542 22.9035 97.4438 23.3043C98.3693 23.6815 99.1643 24.2473 99.8287 25.0017C100.493 25.7562 100.837 26.7582 100.861 28.0077C100.861 29.1158 100.552 30.106 99.9355 30.9783C99.3185 31.8507 98.4405 32.5344 97.3014 33.0295C96.1861 33.5246 94.869 33.7721 93.3502 33.7721Z"/>
<path d="M103.893 23.6933C103.893 21.6893 104.296 19.9328 105.103 18.424C105.934 16.8915 107.073 15.7127 108.521 14.8875C109.968 14.0624 111.629 13.6498 113.504 13.6498C115.877 13.6498 117.835 14.2156 119.377 15.3473C120.206 15.9335 120.892 16.655 121.435 17.5118C122.205 18.7274 121.137 20.1215 119.698 20.1215C118.778 20.1215 118 19.5096 117.436 18.783C117.159 18.426 116.833 18.1178 116.458 17.8581C115.675 17.3159 114.691 17.0448 113.504 17.0448C111.843 17.0448 110.514 17.6342 109.517 18.813C108.544 19.9682 108.058 21.595 108.058 23.6933C108.058 25.7915 108.544 27.4301 109.517 28.6089C110.514 29.7877 111.843 30.3771 113.504 30.3771C115.276 30.3771 116.596 29.7935 117.464 28.6262C118.003 27.8998 118.768 27.3004 119.673 27.3004C121.111 27.3004 122.156 28.7062 121.361 29.9053C120.819 30.7224 120.146 31.4337 119.342 32.0393C117.776 33.1945 115.83 33.7721 113.504 33.7721C111.629 33.7721 109.968 33.3595 108.521 32.5344C107.073 31.6856 105.934 30.5068 105.103 28.9979C104.296 27.4655 103.893 25.6972 103.893 23.6933Z"/>
<path d="M135.097 33.7721C133.246 33.7721 131.573 33.3595 130.078 32.5344C128.583 31.6856 127.408 30.5068 126.554 28.9979C125.7 27.4655 125.272 25.6972 125.272 23.6933C125.272 21.7129 125.711 19.9564 126.589 18.424C127.467 16.8915 128.666 15.7127 130.185 14.8875C131.703 14.0624 133.4 13.6498 135.275 13.6498C137.15 13.6498 138.846 14.0624 140.365 14.8875C141.884 15.7127 143.082 16.8915 143.96 18.424C144.838 19.9564 145.277 21.7129 145.277 23.6933C145.277 25.6737 144.826 27.4301 143.925 28.9626C143.023 30.495 141.789 31.6856 140.223 32.5344C138.68 33.3595 136.972 33.7721 135.097 33.7721ZM135.097 30.271C136.141 30.271 137.114 30.0235 138.016 29.5284C138.941 29.0333 139.689 28.2906 140.258 27.3004C140.828 26.3102 141.113 25.1078 141.113 23.6933C141.113 22.2787 140.84 21.0881 140.294 20.1215C139.748 19.1313 139.024 18.3886 138.123 17.8935C137.221 17.3984 136.248 17.1508 135.204 17.1508C134.16 17.1508 133.187 17.3984 132.285 17.8935C131.407 18.3886 130.707 19.1313 130.185 20.1215C129.663 21.0881 129.402 22.2787 129.402 23.6933C129.402 25.7915 129.935 27.4183 131.003 28.5735C132.095 29.7052 133.459 30.271 135.097 30.271Z"/>
<path d="M151.318 7.28418C152.438 7.28418 153.347 8.19258 153.347 9.31316V31.4249C153.347 32.5454 152.438 33.4538 151.318 33.4538C150.197 33.4538 149.289 32.5454 149.289 31.4249V9.31315C149.289 8.19258 150.197 7.28418 151.318 7.28418Z"/>
<path d="M157.322 23.6225C157.322 21.6657 157.725 19.9328 158.532 18.424C159.363 16.9151 160.478 15.7481 161.878 14.9229C163.302 14.0741 164.868 13.6498 166.577 13.6498C168.119 13.6498 169.46 13.9563 170.599 14.5692C171.762 15.1587 172.688 15.9013 173.376 16.7972V16.0148C173.376 14.8844 174.292 13.9681 175.422 13.9681C176.553 13.9681 177.469 14.8844 177.469 16.0148V31.4071C177.469 32.5375 176.553 33.4538 175.422 33.4538C174.292 33.4538 173.376 32.5375 173.376 31.4071V30.554C172.688 31.4734 171.75 32.2397 170.564 32.8526C169.377 33.4656 168.024 33.7721 166.506 33.7721C164.821 33.7721 163.278 33.3477 161.878 32.499C160.478 31.6267 159.363 30.4243 158.532 28.8918C157.725 27.3358 157.322 25.5794 157.322 23.6225ZM173.376 23.6933C173.376 22.3494 173.091 21.1824 172.521 20.1922C171.976 19.202 171.252 18.4475 170.35 17.9289C169.448 17.4102 168.475 17.1508 167.431 17.1508C166.387 17.1508 165.414 17.4102 164.512 17.9289C163.611 18.424 162.875 19.1666 162.305 20.1568C161.76 21.1234 161.487 22.2787 161.487 23.6225C161.487 24.9664 161.76 26.1452 162.305 27.159C162.875 28.1728 163.611 28.9508 164.512 29.493C165.438 30.0117 166.411 30.271 167.431 30.271C168.475 30.271 169.448 30.0117 170.35 29.493C171.252 28.9743 171.976 28.2199 172.521 27.2297C173.091 26.2159 173.376 25.0371 173.376 23.6933Z"/>
</mask>
<path d="M82.2376 23.2335C82.2376 24.379 81.253 25.2139 80.1076 25.2139H67.1093C67.2279 26.77 67.8093 28.0195 68.8535 28.9626C69.8976 29.9056 71.1791 30.3771 72.6978 30.3771C74.3683 30.3771 75.6636 29.8458 76.5839 28.783C77.1269 28.156 77.8499 27.6541 78.6793 27.6541C80.1685 27.6541 81.2074 29.1374 80.2913 30.3114C79.7819 30.9643 79.1729 31.552 78.4644 32.0746C76.9219 33.2063 74.9997 33.7721 72.6978 33.7721C70.8231 33.7721 69.1382 33.3595 67.6432 32.5344C66.1719 31.6856 65.0091 30.5068 64.1548 28.9979C63.3242 27.4655 62.9089 25.6972 62.9089 23.6933C62.9089 21.6893 63.3124 19.9328 64.1192 18.424C64.9498 16.8915 66.1007 15.7127 67.572 14.8875C69.0671 14.0624 70.7757 13.6498 72.6978 13.6498C74.5488 13.6498 76.1981 14.0506 77.6457 14.8522C79.0933 15.6538 80.2205 16.7854 81.0273 18.2471C81.8342 19.6853 82.2376 21.3474 82.2376 23.2335ZM78.0017 21.9604C77.9779 20.4751 77.444 19.2845 76.3998 18.3886C75.3557 17.4927 74.0624 17.0448 72.5199 17.0448C71.1198 17.0448 69.9214 17.4927 68.9247 18.3886C67.928 19.2609 67.3347 20.4515 67.1449 21.9604H78.0017Z" fill="#FAFAFA"/>
<path d="M93.3502 33.7721C91.8077 33.7721 90.4195 33.501 89.1855 32.9587C87.9752 32.3929 87.0141 31.6385 86.3022 30.6954C86.0518 30.3554 85.8425 30.0022 85.6743 29.636C85.1658 28.5288 86.1776 27.4773 87.3959 27.4773C88.5089 27.4773 89.3977 28.4267 90.169 29.2292C90.2806 29.3453 90.4036 29.4569 90.5381 29.5638C91.2738 30.106 92.1874 30.3771 93.279 30.3771C94.4181 30.3771 95.2961 30.1649 95.9131 29.7406C96.5539 29.2926 96.8742 28.7268 96.8742 28.0431C96.8742 27.3122 96.5183 26.77 95.8064 26.4163C95.1182 26.0627 94.0147 25.6737 92.4959 25.2493C91.0246 24.8485 89.8262 24.4595 88.9007 24.0823C87.9752 23.705 87.1684 23.1274 86.4802 22.3494C85.8157 21.5714 85.4835 20.5458 85.4835 19.2727C85.4835 18.2354 85.792 17.2923 86.409 16.4436C87.026 15.5712 87.904 14.8875 89.0431 14.3924C90.2059 13.8973 91.5348 13.6498 93.0299 13.6498C95.2606 13.6498 97.0522 14.2156 98.4049 15.3473C99.2336 16.0144 99.83 16.8312 100.194 17.7975C100.609 18.898 99.6266 19.9093 98.4505 19.9093C97.379 19.9093 96.563 18.9875 95.8584 18.1802C95.7473 18.053 95.6232 17.9338 95.486 17.8228C94.8453 17.3041 93.9791 17.0448 92.8875 17.0448C91.8196 17.0448 91.0009 17.2452 90.4314 17.6459C89.8618 18.0467 89.577 18.5772 89.577 19.2373C89.577 19.756 89.7669 20.1922 90.1466 20.5458C90.5263 20.8995 90.989 21.1824 91.5348 21.3946C92.0806 21.5832 92.8875 21.8307 93.9554 22.1372C95.3792 22.5144 96.542 22.9035 97.4438 23.3043C98.3693 23.6815 99.1643 24.2473 99.8287 25.0017C100.493 25.7562 100.837 26.7582 100.861 28.0077C100.861 29.1158 100.552 30.106 99.9355 30.9783C99.3185 31.8507 98.4405 32.5344 97.3014 33.0295C96.1861 33.5246 94.869 33.7721 93.3502 33.7721Z" fill="#FAFAFA"/>
<path d="M103.893 23.6933C103.893 21.6893 104.296 19.9328 105.103 18.424C105.934 16.8915 107.073 15.7127 108.521 14.8875C109.968 14.0624 111.629 13.6498 113.504 13.6498C115.877 13.6498 117.835 14.2156 119.377 15.3473C120.206 15.9335 120.892 16.655 121.435 17.5118C122.205 18.7274 121.137 20.1215 119.698 20.1215C118.778 20.1215 118 19.5096 117.436 18.783C117.159 18.426 116.833 18.1178 116.458 17.8581C115.675 17.3159 114.691 17.0448 113.504 17.0448C111.843 17.0448 110.514 17.6342 109.517 18.813C108.544 19.9682 108.058 21.595 108.058 23.6933C108.058 25.7915 108.544 27.4301 109.517 28.6089C110.514 29.7877 111.843 30.3771 113.504 30.3771C115.276 30.3771 116.596 29.7935 117.464 28.6262C118.003 27.8998 118.768 27.3004 119.673 27.3004C121.111 27.3004 122.156 28.7062 121.361 29.9053C120.819 30.7224 120.146 31.4337 119.342 32.0393C117.776 33.1945 115.83 33.7721 113.504 33.7721C111.629 33.7721 109.968 33.3595 108.521 32.5344C107.073 31.6856 105.934 30.5068 105.103 28.9979C104.296 27.4655 103.893 25.6972 103.893 23.6933Z" fill="#FAFAFA"/>
<path d="M135.097 33.7721C133.246 33.7721 131.573 33.3595 130.078 32.5344C128.583 31.6856 127.408 30.5068 126.554 28.9979C125.7 27.4655 125.272 25.6972 125.272 23.6933C125.272 21.7129 125.711 19.9564 126.589 18.424C127.467 16.8915 128.666 15.7127 130.185 14.8875C131.703 14.0624 133.4 13.6498 135.275 13.6498C137.15 13.6498 138.846 14.0624 140.365 14.8875C141.884 15.7127 143.082 16.8915 143.96 18.424C144.838 19.9564 145.277 21.7129 145.277 23.6933C145.277 25.6737 144.826 27.4301 143.925 28.9626C143.023 30.495 141.789 31.6856 140.223 32.5344C138.68 33.3595 136.972 33.7721 135.097 33.7721ZM135.097 30.271C136.141 30.271 137.114 30.0235 138.016 29.5284C138.941 29.0333 139.689 28.2906 140.258 27.3004C140.828 26.3102 141.113 25.1078 141.113 23.6933C141.113 22.2787 140.84 21.0881 140.294 20.1215C139.748 19.1313 139.024 18.3886 138.123 17.8935C137.221 17.3984 136.248 17.1508 135.204 17.1508C134.16 17.1508 133.187 17.3984 132.285 17.8935C131.407 18.3886 130.707 19.1313 130.185 20.1215C129.663 21.0881 129.402 22.2787 129.402 23.6933C129.402 25.7915 129.935 27.4183 131.003 28.5735C132.095 29.7052 133.459 30.271 135.097 30.271Z" fill="#FAFAFA"/>
<path d="M151.318 7.28418C152.438 7.28418 153.347 8.19258 153.347 9.31316V31.4249C153.347 32.5454 152.438 33.4538 151.318 33.4538C150.197 33.4538 149.289 32.5454 149.289 31.4249V9.31315C149.289 8.19258 150.197 7.28418 151.318 7.28418Z" fill="#FAFAFA"/>
<path d="M157.322 23.6225C157.322 21.6657 157.725 19.9328 158.532 18.424C159.363 16.9151 160.478 15.7481 161.878 14.9229C163.302 14.0741 164.868 13.6498 166.577 13.6498C168.119 13.6498 169.46 13.9563 170.599 14.5692C171.762 15.1587 172.688 15.9013 173.376 16.7972V16.0148C173.376 14.8844 174.292 13.9681 175.422 13.9681C176.553 13.9681 177.469 14.8844 177.469 16.0148V31.4071C177.469 32.5375 176.553 33.4538 175.422 33.4538C174.292 33.4538 173.376 32.5375 173.376 31.4071V30.554C172.688 31.4734 171.75 32.2397 170.564 32.8526C169.377 33.4656 168.024 33.7721 166.506 33.7721C164.821 33.7721 163.278 33.3477 161.878 32.499C160.478 31.6267 159.363 30.4243 158.532 28.8918C157.725 27.3358 157.322 25.5794 157.322 23.6225ZM173.376 23.6933C173.376 22.3494 173.091 21.1824 172.521 20.1922C171.976 19.202 171.252 18.4475 170.35 17.9289C169.448 17.4102 168.475 17.1508 167.431 17.1508C166.387 17.1508 165.414 17.4102 164.512 17.9289C163.611 18.424 162.875 19.1666 162.305 20.1568C161.76 21.1234 161.487 22.2787 161.487 23.6225C161.487 24.9664 161.76 26.1452 162.305 27.159C162.875 28.1728 163.611 28.9508 164.512 29.493C165.438 30.0117 166.411 30.271 167.431 30.271C168.475 30.271 169.448 30.0117 170.35 29.493C171.252 28.9743 171.976 28.2199 172.521 27.2297C173.091 26.2159 173.376 25.0371 173.376 23.6933Z" fill="#FAFAFA"/>
<path d="M67.1093 25.2139V24.7598H66.6192L66.6565 25.2485L67.1093 25.2139ZM68.8535 28.9626L68.5491 29.2995H68.5491L68.8535 28.9626ZM78.4644 32.0746L78.733 32.4407L78.734 32.4401L78.4644 32.0746ZM67.6432 32.5344L67.4163 32.9278L67.4238 32.9319L67.6432 32.5344ZM64.1548 28.9979L63.7555 29.2143L63.7596 29.2216L64.1548 28.9979ZM64.1192 18.424L63.72 18.2076L63.7188 18.2098L64.1192 18.424ZM67.572 14.8875L67.3526 14.49L67.3499 14.4915L67.572 14.8875ZM77.6457 14.8522L77.8657 14.4549L77.6457 14.8522ZM81.0273 18.2471L80.6298 18.4666L80.6313 18.4693L81.0273 18.2471ZM78.0017 21.9604V22.4145H78.4631L78.4557 21.9532L78.0017 21.9604ZM76.3998 18.3886L76.6955 18.044L76.3998 18.3886ZM68.9247 18.3886L69.2238 18.7303L69.2282 18.7263L68.9247 18.3886ZM67.1449 21.9604L66.6943 21.9037L66.6301 22.4145H67.1449V21.9604ZM89.1855 32.9587L88.9931 33.3702L89.0028 33.3745L89.1855 32.9587ZM86.3022 30.6954L85.9366 30.9647L85.9398 30.969L86.3022 30.6954ZM90.5381 29.5638L90.2556 29.9192L90.2621 29.9244L90.2687 29.9293L90.5381 29.5638ZM95.9131 29.7406L96.1705 30.1147L96.1733 30.1127L95.9131 29.7406ZM95.8064 26.4163L95.5988 26.8202L95.6043 26.823L95.8064 26.4163ZM92.4959 25.2493L92.6181 24.812L92.6153 24.8112L92.4959 25.2493ZM88.9007 24.0823L88.7293 24.5028L88.9007 24.0823ZM86.4802 22.3494L86.1348 22.6444L86.1401 22.6503L86.4802 22.3494ZM86.409 16.4436L86.7763 16.7106L86.7797 16.7058L86.409 16.4436ZM89.0431 14.3924L88.8652 13.9746L88.8621 13.976L89.0431 14.3924ZM98.4049 15.3473L98.1134 15.6956L98.1201 15.701L98.4049 15.3473ZM95.486 17.8228L95.7717 17.4698V17.4698L95.486 17.8228ZM90.4314 17.6459L90.17 17.2746V17.2746L90.4314 17.6459ZM90.1466 20.5458L89.8371 20.8781V20.8781L90.1466 20.5458ZM91.5348 21.3946L91.3703 21.8178L91.3784 21.8209L91.3865 21.8238L91.5348 21.3946ZM93.9554 22.1372L93.8301 22.5738L93.8391 22.5762L93.9554 22.1372ZM97.4438 23.3043L97.2593 23.7192L97.2658 23.7221L97.2724 23.7248L97.4438 23.3043ZM99.8287 25.0017L99.4879 25.3019L99.8287 25.0017ZM100.861 28.0077H101.315L101.315 27.9991L100.861 28.0077ZM99.9355 30.9783L99.5648 30.7161L99.9355 30.9783ZM97.3014 33.0295L97.1204 32.613L97.1172 32.6144L97.3014 33.0295ZM105.103 18.424L104.704 18.2076L104.703 18.2098L105.103 18.424ZM108.521 14.8875L108.296 14.493L108.521 14.8875ZM119.377 15.3473L119.109 15.7134L119.115 15.718L119.377 15.3473ZM116.458 17.8581L116.717 17.4848L116.458 17.8581ZM109.517 18.813L109.17 18.5198L109.17 18.5205L109.517 18.813ZM109.517 28.6089L109.167 28.898L109.17 28.9021L109.517 28.6089ZM119.342 32.0393L119.611 32.4047L119.615 32.4021L119.342 32.0393ZM108.521 32.5344L108.291 32.9261L108.296 32.9289L108.521 32.5344ZM105.103 28.9979L104.701 29.2095L104.706 29.2169L105.103 28.9979ZM130.078 32.5344L129.854 32.9293L129.858 32.9319L130.078 32.5344ZM126.554 28.9979L126.157 29.219L126.159 29.2216L126.554 28.9979ZM130.185 14.8875L129.968 14.4885V14.4885L130.185 14.8875ZM140.365 14.8875L140.582 14.4885V14.4885L140.365 14.8875ZM140.223 32.5344L140.437 32.9348L140.439 32.9336L140.223 32.5344ZM138.016 29.5284L137.802 29.128L137.797 29.1303L138.016 29.5284ZM140.258 27.3004L139.865 27.074L140.258 27.3004ZM140.294 20.1215L139.896 20.3407L139.899 20.3447L140.294 20.1215ZM132.285 17.8935L132.066 17.4954L132.062 17.498L132.285 17.8935ZM130.185 20.1215L130.584 20.3373L130.586 20.3332L130.185 20.1215ZM131.003 28.5735L130.67 28.8819L130.677 28.8888L131.003 28.5735ZM158.532 18.424L158.134 18.205L158.132 18.2098L158.532 18.424ZM161.878 14.9229L162.109 15.3141L162.111 15.3129L161.878 14.9229ZM170.599 14.5692L170.384 14.9692L170.394 14.9743L170.599 14.5692ZM173.376 16.7972L173.016 17.0738L173.83 18.1338V16.7972H173.376ZM173.376 30.554H173.83V29.1895L173.012 30.2819L173.376 30.554ZM170.564 32.8526L170.355 32.4492L170.564 32.8526ZM161.878 32.499L161.638 32.8844L161.643 32.8873L161.878 32.499ZM158.532 28.8918L158.129 29.1009L158.133 29.1082L158.532 28.8918ZM172.521 20.1922L172.124 20.4114L172.128 20.4186L172.521 20.1922ZM170.35 17.9289L170.124 18.3225L170.35 17.9289ZM164.512 17.9289L164.731 18.327L164.739 18.3225L164.512 17.9289ZM162.305 20.1568L161.912 19.9304L161.91 19.9336L162.305 20.1568ZM162.305 27.159L161.905 27.3743L161.909 27.3814L162.305 27.159ZM164.512 29.493L164.278 29.8824L164.29 29.8891L164.512 29.493ZM170.35 29.493L170.576 29.8866L170.35 29.493ZM172.521 27.2297L172.125 27.0073L172.124 27.0105L172.521 27.2297ZM121.361 29.9053L121.739 30.1562L121.361 29.9053ZM100.194 17.7975L100.619 17.6374L100.194 17.7975ZM117.436 18.783L117.078 19.0614L117.436 18.783ZM76.5839 28.783L76.2406 28.4858L76.5839 28.783ZM80.2913 30.3114L80.6493 30.5908L80.2913 30.3114ZM117.464 28.6262L117.099 28.3553L117.464 28.6262ZM80.1076 24.7598H67.1093V25.668H80.1076V24.7598ZM66.6565 25.2485C66.783 26.9068 67.4088 28.2696 68.5491 29.2995L69.1578 28.6256C68.2099 27.7694 67.6729 26.6331 67.562 25.1794L66.6565 25.2485ZM68.5491 29.2995C69.6837 30.3242 71.0763 30.8312 72.6978 30.8312V29.923C71.2818 29.923 70.1116 29.487 69.1578 28.6256L68.5491 29.2995ZM72.6978 30.8312C74.4728 30.8312 75.9043 30.2615 76.9272 29.0803L76.2406 28.4858C75.423 29.43 74.2638 29.923 72.6978 29.923V30.8312ZM79.9333 30.0321C79.4509 30.6504 78.8722 31.2096 78.1949 31.7092L78.734 32.4401C79.4736 31.8945 80.1129 31.2782 80.6493 30.5908L79.9333 30.0321ZM78.1958 31.7085C76.746 32.7722 74.9232 33.318 72.6978 33.318V34.2262C75.0762 34.2262 77.0978 33.6404 78.733 32.4407L78.1958 31.7085ZM72.6978 33.318C70.8922 33.318 69.2841 32.9213 67.8626 32.1368L67.4238 32.9319C68.9924 33.7977 70.7541 34.2262 72.6978 34.2262V33.318ZM67.8701 32.141C66.4705 31.3337 65.3652 30.2141 64.5499 28.7742L63.7596 29.2216C64.653 30.7995 65.8733 32.0376 67.4163 32.9277L67.8701 32.141ZM64.554 28.7815C63.7645 27.3249 63.363 25.6331 63.363 23.6933H62.4548C62.4548 25.7614 62.8839 27.606 63.7556 29.2143L64.554 28.7815ZM63.363 23.6933C63.363 21.7512 63.7536 20.0707 64.5196 18.6381L63.7188 18.2098C62.8711 19.795 62.4548 21.6274 62.4548 23.6933H63.363ZM64.5184 18.6403C65.3096 17.1807 66.4002 16.0653 67.7941 15.2836L67.3499 14.4915C65.8012 15.3601 64.59 16.6024 63.72 18.2076L64.5184 18.6403ZM67.7914 15.2851C69.2112 14.5015 70.8426 14.1039 72.6978 14.1039V13.1957C70.7087 13.1957 68.9229 13.6233 67.3526 14.49L67.7914 15.2851ZM72.6978 14.1039C74.4812 14.1039 76.0532 14.4894 77.4257 15.2494L77.8657 14.4549C76.3431 13.6118 74.6165 13.1957 72.6978 13.1957V14.1039ZM77.4257 15.2494C78.7978 16.0092 79.8638 17.0789 80.6298 18.4666L81.4249 18.0277C80.5771 16.4919 79.3887 15.2983 77.8657 14.4549L77.4257 15.2494ZM80.6313 18.4693C81.3949 19.8304 81.7835 21.4139 81.7835 23.2335H82.6917C82.6917 21.2809 82.2734 19.5402 81.4233 18.025L80.6313 18.4693ZM78.4557 21.9532C78.4301 20.3496 77.8468 19.0318 76.6955 18.044L76.1041 18.7332C77.0412 19.5372 77.5258 20.6006 77.5476 21.9677L78.4557 21.9532ZM76.6955 18.044C75.559 17.0688 74.1568 16.5907 72.5199 16.5907V17.4988C73.9679 17.4988 75.1524 17.9166 76.1041 18.7332L76.6955 18.044ZM72.5199 16.5907C71.0132 16.5907 69.7052 17.0765 68.6211 18.0509L69.2282 18.7263C70.1376 17.9089 71.2263 17.4988 72.5199 17.4988V16.5907ZM68.6256 18.0469C67.5329 19.0033 66.8959 20.3019 66.6943 21.9037L67.5954 22.0171C67.7736 20.6011 68.3231 19.5186 69.2237 18.7303L68.6256 18.0469ZM67.1449 22.4145H78.0017V21.5063H67.1449V22.4145ZM93.3502 33.318C91.8616 33.318 90.5369 33.0566 89.3682 32.543L89.0028 33.3745C90.3021 33.9454 91.7539 34.2262 93.3502 34.2262V33.318ZM89.3778 32.5474C88.2258 32.0088 87.3264 31.2984 86.6646 30.4218L85.9398 30.969C86.7019 31.9785 87.7247 32.777 88.9932 33.3701L89.3778 32.5474ZM86.6678 30.4261C86.4349 30.1098 86.2416 29.7833 86.0869 29.4465L85.2616 29.8255C85.4433 30.2212 85.6687 30.6009 85.9366 30.9647L86.6678 30.4261ZM89.8416 29.5438C89.9681 29.6755 90.1063 29.8006 90.2556 29.9192L90.8207 29.2083C90.701 29.1131 90.5931 29.0152 90.4964 28.9145L89.8416 29.5438ZM90.2687 29.9293C91.0967 30.5396 92.1098 30.8312 93.279 30.8312V29.923C92.265 29.923 91.4509 29.6724 90.8076 29.1982L90.2687 29.9293ZM93.279 30.8312C94.4652 30.8312 95.4477 30.6118 96.1705 30.1147L95.6558 29.3664C95.1446 29.7181 94.371 29.923 93.279 29.923V30.8312ZM96.1733 30.1127C96.9154 29.5939 97.3283 28.8981 97.3283 28.0431H96.4202C96.4202 28.5555 96.1923 28.9913 95.653 29.3684L96.1733 30.1127ZM97.3283 28.0431C97.3283 27.6007 97.2194 27.1933 96.9869 26.8391C96.7557 26.487 96.4203 26.2142 96.0084 26.0096L95.6043 26.823C95.9044 26.972 96.1028 27.1473 96.2277 27.3374C96.3511 27.5254 96.4202 27.7546 96.4202 28.0431H97.3283ZM96.0139 26.0124C95.2829 25.6368 94.1426 25.2379 92.6181 24.812L92.3737 25.6866C93.8868 26.1094 94.9534 26.4886 95.5988 26.8202L96.0139 26.0124ZM92.6153 24.8112C91.1535 24.413 89.9743 24.0295 89.0721 23.6618L88.7293 24.5028C89.6782 24.8895 90.8957 25.284 92.3766 25.6874L92.6153 24.8112ZM89.0721 23.6618C88.2139 23.312 87.4641 22.7764 86.8203 22.0486L86.1401 22.6503C86.8727 23.4785 87.7366 24.0981 88.7293 24.5028L89.0721 23.6618ZM86.8255 22.0545C86.2471 21.3773 85.9376 20.465 85.9376 19.2727H85.0294C85.0294 20.6266 85.3843 21.7655 86.1349 22.6443L86.8255 22.0545ZM85.9376 19.2727C85.9376 18.3325 86.215 17.4827 86.7763 16.7106L86.0417 16.1766C85.369 17.1019 85.0294 18.1382 85.0294 19.2727H85.9376ZM86.7797 16.7058C87.3414 15.9116 88.1486 15.2763 89.2241 14.8089L88.8621 13.976C87.6594 14.4987 86.7106 15.2309 86.0383 16.1813L86.7797 16.7058ZM89.221 14.8102C90.3182 14.343 91.585 14.1039 93.0299 14.1039V13.1957C91.4847 13.1957 90.0936 13.4516 88.8652 13.9746L89.221 14.8102ZM93.0299 14.1039C95.1829 14.1039 96.8623 14.6487 98.1135 15.6955L98.6962 14.999C97.2422 13.7825 95.3382 13.1957 93.0299 13.1957V14.1039ZM98.1201 15.701C98.8877 16.3189 99.4346 17.0696 99.7693 17.9576L100.619 17.6374C100.225 16.5928 99.5795 15.71 98.6896 14.9936L98.1201 15.701ZM96.2005 17.8816C96.0714 17.7338 95.9283 17.5966 95.7717 17.4698L95.2003 18.1757C95.318 18.271 95.4231 18.3721 95.5163 18.4788L96.2005 17.8816ZM95.7717 17.4698C95.0272 16.8672 94.0492 16.5907 92.8875 16.5907V17.4988C93.909 17.4988 94.6633 17.741 95.2003 18.1757L95.7717 17.4698ZM92.8875 16.5907C91.7727 16.5907 90.847 16.7982 90.17 17.2746L90.6927 18.0173C91.1548 17.6921 91.8665 17.4988 92.8875 17.4988V16.5907ZM90.17 17.2746C89.4875 17.7549 89.123 18.4201 89.123 19.2373H90.0311C90.0311 18.7343 90.2361 18.3386 90.6927 18.0173L90.17 17.2746ZM89.123 19.2373C89.123 19.8821 89.3652 20.4386 89.8371 20.8781L90.4561 20.2135C90.1686 19.9458 90.0311 19.6299 90.0311 19.2373H89.123ZM89.8371 20.8781C90.264 21.2757 90.7777 21.5874 91.3703 21.8178L91.6994 20.9713C91.2003 20.7773 90.7886 20.5232 90.4561 20.2135L89.8371 20.8781ZM91.3865 21.8238C91.944 22.0164 92.7601 22.2666 93.8301 22.5737L94.0806 21.7008C93.0148 21.3949 92.2173 21.15 91.6831 20.9654L91.3865 21.8238ZM93.8391 22.5762C95.2498 22.9499 96.3875 23.3317 97.2593 23.7192L97.6282 22.8893C96.6965 22.4752 95.5086 22.079 94.0717 21.6983L93.8391 22.5762ZM97.2724 23.7248C98.1325 24.0753 98.8696 24.5998 99.4879 25.3019L100.169 24.7016C99.4589 23.8948 98.6061 23.2876 97.6152 22.8838L97.2724 23.7248ZM99.4879 25.3019C100.065 25.9574 100.385 26.8473 100.407 28.0163L101.315 27.9991C101.29 26.669 100.921 25.5549 100.169 24.7016L99.4879 25.3019ZM100.407 28.0077C100.407 29.0256 100.125 29.9234 99.5648 30.7161L100.306 31.2405C100.98 30.2886 101.315 29.206 101.315 28.0077H100.407ZM99.5648 30.7161C99.0031 31.5103 98.1959 32.1456 97.1204 32.613L97.4824 33.4459C98.6851 32.9232 99.6339 32.191 100.306 31.2405L99.5648 30.7161ZM97.1172 32.6144C96.0722 33.0783 94.8206 33.318 93.3502 33.318V34.2262C94.9174 34.2262 96.2999 33.9708 97.4856 33.4445L97.1172 32.6144ZM104.347 23.6933C104.347 21.7512 104.738 20.0707 105.504 18.6381L104.703 18.2098C103.855 19.795 103.439 21.6274 103.439 23.6933H104.347ZM105.503 18.6403C106.295 17.1788 107.375 16.0633 108.745 15.282L108.296 14.493C106.771 15.3621 105.573 16.6043 104.704 18.2076L105.503 18.6403ZM108.745 15.282C110.116 14.5006 111.698 14.1039 113.504 14.1039V13.1957C111.56 13.1957 109.82 13.6241 108.296 14.493L108.745 15.282ZM113.504 14.1039C115.804 14.1039 117.661 14.6514 119.109 15.7134L119.646 14.9811C118.008 13.7798 115.95 13.1957 113.504 13.1957V14.1039ZM119.115 15.718C119.895 16.27 120.54 16.9481 121.051 17.7549L121.818 17.2687C121.244 16.3618 120.517 15.597 119.64 14.9766L119.115 15.718ZM117.795 18.5045C117.489 18.1107 117.13 17.7705 116.717 17.4848L116.2 18.2315C116.537 18.465 116.829 18.7414 117.078 19.0614L117.795 18.5045ZM116.717 17.4848C115.841 16.8783 114.76 16.5907 113.504 16.5907V17.4988C114.621 17.4988 115.51 17.7535 116.2 18.2315L116.717 17.4848ZM113.504 16.5907C111.721 16.5907 110.261 17.2304 109.17 18.5198L109.864 19.1062C110.767 18.0379 111.965 17.4988 113.504 17.4988V16.5907ZM109.17 18.5205C108.105 19.7845 107.604 21.5293 107.604 23.6933H108.512C108.512 21.6606 108.983 20.152 109.865 19.1055L109.17 18.5205ZM107.604 23.6933C107.604 25.8579 108.106 27.612 109.167 28.898L109.867 28.3199C108.983 27.2482 108.512 25.7252 108.512 23.6933H107.604ZM109.17 28.9021C110.261 30.1915 111.721 30.8312 113.504 30.8312V29.923C111.965 29.923 110.767 29.384 109.864 28.3157L109.17 28.9021ZM113.504 30.8312C115.385 30.8312 116.856 30.2052 117.828 28.897L117.099 28.3553C116.336 29.3818 115.168 29.923 113.504 29.923V30.8312ZM120.982 29.6544C120.47 30.4273 119.833 31.1011 119.069 31.6765L119.615 32.4021C120.459 31.7663 121.169 31.0175 121.739 30.1562L120.982 29.6544ZM119.072 31.6738C117.598 32.7609 115.752 33.318 113.504 33.318V34.2262C115.907 34.2262 117.953 33.6281 119.611 32.4047L119.072 31.6738ZM113.504 33.318C111.698 33.318 110.116 32.9213 108.745 32.1399L108.296 32.9289C109.82 33.7978 111.56 34.2262 113.504 34.2262V33.318ZM108.75 32.1426C107.375 31.3364 106.293 30.2181 105.501 28.7789L104.706 29.2169C105.574 30.7955 106.771 32.0348 108.291 32.9261L108.75 32.1426ZM105.505 28.7864C104.738 27.3287 104.347 25.6352 104.347 23.6933H103.439C103.439 25.7593 103.855 27.6022 104.702 29.2095L105.505 28.7864ZM135.097 33.318C133.316 33.318 131.72 32.9218 130.297 32.1368L129.858 32.9319C131.426 33.7972 133.176 34.2262 135.097 34.2262V33.318ZM130.302 32.1395C128.879 31.3316 127.763 30.2123 126.949 28.7742L126.159 29.2216C127.053 30.8013 128.287 32.0396 129.854 32.9293L130.302 32.1395ZM126.95 28.7768C126.139 27.3211 125.726 25.631 125.726 23.6933H124.818C124.818 25.7635 125.26 27.6099 126.157 29.219L126.95 28.7768ZM125.726 23.6933C125.726 21.7822 126.149 20.1054 126.983 18.6497L126.195 18.1982C125.273 19.8074 124.818 21.6435 124.818 23.6933H125.726ZM126.983 18.6497C127.821 17.1886 128.958 16.0706 130.401 15.2865L129.968 14.4885C128.373 15.3548 127.114 16.5944 126.195 18.1982L126.983 18.6497ZM130.401 15.2865C131.848 14.5005 133.469 14.1039 135.275 14.1039V13.1957C133.331 13.1957 131.559 13.6242 129.968 14.4885L130.401 15.2865ZM135.275 14.1039C137.08 14.1039 138.702 14.5005 140.148 15.2865L140.582 14.4885C138.991 13.6242 137.219 13.1957 135.275 13.1957V14.1039ZM140.148 15.2865C141.591 16.0706 142.729 17.1886 143.566 18.6497L144.354 18.1982C143.435 16.5944 142.176 15.3548 140.582 14.4885L140.148 15.2865ZM143.566 18.6497C144.4 20.1054 144.823 21.7822 144.823 23.6933H145.731C145.731 21.6435 145.276 19.8074 144.354 18.1982L143.566 18.6497ZM144.823 23.6933C144.823 25.6021 144.39 27.2773 143.533 28.7323L144.316 29.1929C145.263 27.5829 145.731 25.7452 145.731 23.6933H144.823ZM143.533 28.7323C142.674 30.1934 141.5 31.3257 140.006 32.1351L140.439 32.9336C142.078 32.0456 143.372 30.7966 144.316 29.1929L143.533 28.7323ZM140.009 32.134C138.537 32.9214 136.902 33.318 135.097 33.318V34.2262C137.041 34.2262 138.824 33.7977 140.437 32.9348L140.009 32.134ZM135.097 30.7251C136.216 30.7251 137.265 30.4589 138.234 29.9264L137.797 29.1303C136.963 29.5881 136.066 29.817 135.097 29.817V30.7251ZM138.23 29.9288C139.237 29.3901 140.044 28.5839 140.652 27.5268L139.865 27.074C139.334 27.9973 138.646 28.6765 137.802 29.128L138.23 29.9288ZM140.652 27.5268C141.27 26.4531 141.567 25.1685 141.567 23.6933H140.659C140.659 25.0471 140.386 26.1673 139.865 27.074L140.652 27.5268ZM141.567 23.6933C141.567 22.2215 141.283 20.9492 140.689 19.8982L139.899 20.3447C140.397 21.227 140.659 22.3359 140.659 23.6933H141.567ZM140.692 19.9023C140.108 18.8444 139.326 18.036 138.341 17.4955L137.904 18.2915C138.723 18.7412 139.388 19.4181 139.896 20.3407L140.692 19.9023ZM138.341 17.4955C137.371 16.963 136.323 16.6968 135.204 16.6968V17.6049C136.173 17.6049 137.07 17.8338 137.904 18.2915L138.341 17.4955ZM135.204 16.6968C134.084 16.6968 133.036 16.963 132.066 17.4955L132.503 18.2915C133.337 17.8338 134.235 17.6049 135.204 17.6049V16.6968ZM132.062 17.498C131.1 18.0405 130.341 18.8512 129.783 19.9097L130.586 20.3332C131.072 19.4113 131.714 18.7367 132.508 18.289L132.062 17.498ZM129.785 19.9057C129.218 20.9549 128.947 22.2244 128.947 23.6933H129.856C129.856 22.3329 130.107 21.2212 130.584 20.3372L129.785 19.9057ZM128.947 23.6933C128.947 25.8669 129.502 27.6179 130.67 28.8818L131.337 28.2653C130.369 27.2188 129.856 25.7162 129.856 23.6933H128.947ZM130.677 28.8888C131.858 30.1132 133.342 30.7251 135.097 30.7251V29.817C133.577 29.817 132.332 29.2972 131.33 28.2583L130.677 28.8888ZM152.893 9.31316V31.4249H153.801V9.31316H152.893ZM149.743 31.4249V9.31315H148.835V31.4249H149.743ZM157.776 23.6225C157.776 21.7296 158.166 20.0722 158.933 18.6381L158.132 18.2098C157.285 19.7935 156.868 21.6018 156.868 23.6225H157.776ZM158.93 18.6429C159.724 17.201 160.783 16.0954 162.109 15.3141L161.648 14.5317C160.173 15.4007 159.002 16.6292 158.134 18.205L158.93 18.6429ZM162.111 15.3129C163.462 14.5074 164.947 14.1039 166.577 14.1039V13.1957C164.789 13.1957 163.142 13.6409 161.646 14.5328L162.111 15.3129ZM166.577 14.1039C168.059 14.1039 169.323 14.398 170.384 14.9691L170.814 14.1694C169.598 13.5146 168.18 13.1957 166.577 13.1957V14.1039ZM170.394 14.9743C171.505 15.5377 172.375 16.2395 173.016 17.0738L173.736 16.5206C173 15.5631 172.019 14.7796 170.805 14.1642L170.394 14.9743ZM173.83 16.7972V16.0148H172.922V16.7972H173.83ZM177.015 16.0148V31.4071H177.923V16.0148H177.015ZM173.83 31.4071V30.554H172.922V31.4071H173.83ZM173.012 30.2819C172.371 31.1381 171.491 31.8626 170.355 32.4492L170.772 33.2561C172.01 32.6167 173.004 31.8087 173.739 30.826L173.012 30.2819ZM170.355 32.4492C169.241 33.0246 167.962 33.318 166.506 33.318V34.2262C168.087 34.2262 169.513 33.9067 170.772 33.2561L170.355 32.4492ZM166.506 33.318C164.901 33.318 163.441 32.9151 162.114 32.1107L161.643 32.8873C163.116 33.7804 164.74 34.2262 166.506 34.2262V33.318ZM162.118 32.1136C160.789 31.2853 159.727 30.1428 158.931 28.6755L158.133 29.1082C158.999 30.7058 160.167 31.9681 161.638 32.8844L162.118 32.1136ZM158.935 28.6828C158.166 27.1986 157.776 25.5152 157.776 23.6225H156.868C156.868 25.6435 157.285 27.473 158.129 29.1009L158.935 28.6828ZM173.83 23.6933C173.83 22.2841 173.531 21.0361 172.915 19.9658L172.128 20.4186C172.651 21.3286 172.922 22.4148 172.922 23.6933H173.83ZM172.919 19.973C172.337 18.9166 171.556 18.0989 170.576 17.5352L170.124 18.3225C170.947 18.7962 171.614 19.4873 172.124 20.4114L172.919 19.973ZM170.576 17.5352C169.606 16.9768 168.554 16.6968 167.431 16.6968V17.6049C168.396 17.6049 169.291 17.8436 170.124 18.3225L170.576 17.5352ZM167.431 16.6968C166.308 16.6968 165.257 16.9768 164.286 17.5352L164.739 18.3225C165.571 17.8436 166.466 17.6049 167.431 17.6049V16.6968ZM164.294 17.5308C163.311 18.0703 162.518 18.8762 161.912 19.9304L162.699 20.3832C163.232 19.457 163.91 18.7776 164.731 18.3269L164.294 17.5308ZM161.91 19.9336C161.318 20.9813 161.033 22.2169 161.033 23.6225H161.941C161.941 22.3405 162.201 21.2656 162.701 20.3801L161.91 19.9336ZM161.033 23.6225C161.033 25.0289 161.319 26.284 161.906 27.3742L162.705 26.9437C162.201 26.0064 161.941 24.9039 161.941 23.6225H161.033ZM161.909 27.3814C162.513 28.4564 163.302 29.2952 164.278 29.8822L164.746 29.1039C163.919 28.6064 163.236 27.8891 162.701 26.9366L161.909 27.3814ZM164.29 29.8891C165.281 30.4443 166.33 30.7251 167.431 30.7251V29.817C166.492 29.817 165.595 29.5791 164.734 29.0969L164.29 29.8891ZM167.431 30.7251C168.554 30.7251 169.606 30.4451 170.576 29.8866L170.124 29.0994C169.291 29.5783 168.396 29.817 167.431 29.817V30.7251ZM170.576 29.8866C171.556 29.323 172.337 28.5053 172.919 27.4489L172.124 27.0105C171.614 27.9345 170.947 28.6257 170.124 29.0994L170.576 29.8866ZM172.917 27.4521C173.531 26.3605 173.83 25.1028 173.83 23.6933H172.922C172.922 24.9715 172.651 26.0714 172.126 27.0073L172.917 27.4521ZM177.015 31.4071C177.015 32.2867 176.302 32.9998 175.422 32.9998V33.9079C176.804 33.9079 177.923 32.7882 177.923 31.4071H177.015ZM175.422 14.4221C176.302 14.4221 177.015 15.1352 177.015 16.0148H177.923C177.923 14.6336 176.804 13.514 175.422 13.514V14.4221ZM149.743 9.31315C149.743 8.44337 150.448 7.73827 151.318 7.73827V6.83009C149.946 6.83009 148.835 7.9418 148.835 9.31315H149.743ZM153.801 9.31316C153.801 7.9418 152.689 6.83009 151.318 6.83009V7.73827C152.188 7.73827 152.893 8.44337 152.893 9.31316H153.801ZM119.673 27.7545C120.245 27.7545 120.724 28.0342 120.979 28.4089C121.226 28.7714 121.269 29.222 120.982 29.6544L121.739 30.1562C122.248 29.3895 122.166 28.5377 121.73 27.8975C121.302 27.2696 120.539 26.8463 119.673 26.8463V27.7545ZM98.4505 19.4552C98.0526 19.4552 97.677 19.2856 97.2956 18.9891C96.9098 18.689 96.5574 18.2906 96.2005 17.8816L95.5163 18.4788C95.8639 18.8772 96.2719 19.3433 96.7381 19.7059C97.2088 20.072 97.7769 20.3634 98.4505 20.3634V19.4552ZM175.422 32.9998C174.543 32.9998 173.83 32.2867 173.83 31.4071H172.922C172.922 32.7882 174.041 33.9079 175.422 33.9079V32.9998ZM99.7693 17.9576C99.911 18.3338 99.8206 18.6882 99.5768 18.9675C99.3253 19.2556 98.9121 19.4552 98.4505 19.4552V20.3634C99.1651 20.3634 99.8311 20.0573 100.261 19.5647C100.699 19.0632 100.892 18.3618 100.619 17.6374L99.7693 17.9576ZM86.0869 29.4465C85.9146 29.0712 85.9929 28.7181 86.2333 28.4358C86.484 28.1413 86.9124 27.9313 87.3959 27.9313V27.0232C86.661 27.0232 85.9744 27.339 85.5418 27.8471C85.0988 28.3674 84.9255 29.0936 85.2616 29.8255L86.0869 29.4465ZM173.83 16.0148C173.83 15.1352 174.543 14.4221 175.422 14.4221V13.514C174.041 13.514 172.922 14.6336 172.922 16.0148H173.83ZM119.698 19.6674C118.987 19.6674 118.326 19.1887 117.795 18.5045L117.078 19.0614C117.675 19.8305 118.57 20.5755 119.698 20.5755V19.6674ZM152.893 31.4249C152.893 32.2946 152.188 32.9998 151.318 32.9998V33.9079C152.689 33.9079 153.801 32.7962 153.801 31.4249H152.893ZM76.9272 29.0803C77.43 28.4995 78.0387 28.1082 78.6793 28.1082V27.2C77.661 27.2 76.8237 27.8124 76.2406 28.4858L76.9272 29.0803ZM121.051 17.7549C121.329 18.1933 121.279 18.647 121.023 19.012C120.759 19.3889 120.272 19.6674 119.698 19.6674V20.5755C120.563 20.5755 121.33 20.1571 121.767 19.533C122.212 18.8971 122.311 18.0459 121.818 17.2687L121.051 17.7549ZM87.3959 27.9313C87.8178 27.9313 88.2245 28.1104 88.641 28.4177C89.0614 28.7278 89.4484 29.1347 89.8416 29.5438L90.4964 28.9145C90.1183 28.5212 89.6752 28.0521 89.1801 27.6869C88.6812 27.3188 88.0869 27.0232 87.3959 27.0232V27.9313ZM151.318 32.9998C150.448 32.9998 149.743 32.2946 149.743 31.4249H148.835C148.835 32.7962 149.946 33.9079 151.318 33.9079V32.9998ZM78.6793 28.1082C79.2739 28.1082 79.7595 28.4041 80.0048 28.7873C80.2404 29.1552 80.264 29.6083 79.9333 30.0321L80.6493 30.5908C81.2347 29.8405 81.1969 28.965 80.7697 28.2977C80.3523 27.6457 79.5739 27.2 78.6793 27.2V28.1082ZM117.828 28.897C118.331 28.2205 118.977 27.7545 119.673 27.7545V26.8463C118.559 26.8463 117.676 27.5791 117.099 28.3553L117.828 28.897ZM81.7835 23.2335C81.7835 24.0861 81.0465 24.7598 80.1076 24.7598V25.668C81.4596 25.668 82.6917 24.6718 82.6917 23.2335H81.7835Z" fill="#FAFAFA" mask="url(#path-4-outside-2_61_7)"/>
<path fill-rule="evenodd" clip-rule="evenodd" d="M11.1938 20.4556C11.5669 14.5383 16.408 9.93262 22.2546 9.93262H29.7634C37.81 9.93262 44.4237 16.1542 45.1826 24.1127L45.1971 24.1217C52.0361 28.3841 49.0575 39.0693 41.0302 39.0693H24.5821C17.8075 39.0693 12.242 34.0859 11.1253 27.6216C9.50072 28.0347 7.31344 28.8319 3.76158 30.5746C2.45901 31.2136 0.892233 30.6608 0.262089 29.3398C-0.368056 28.0188 0.177055 26.4298 1.47963 25.7907C6.22009 23.465 8.92274 22.6104 11.0844 22.1913L11.1938 20.4556ZM16.2882 26.7043C28.3371 24.7334 38.0046 26.7555 41.4785 28.0416L42.4535 28.6493C44.7896 30.1053 43.7722 33.7551 41.0302 33.7551H24.5821C20.4081 33.7551 16.9788 30.6862 16.2882 26.7043ZM39.3384 21.9208C37.8619 18.0177 34.1318 15.2468 29.7634 15.2468H22.2546C19.1722 15.2468 16.6199 17.675 16.4232 20.7947L16.3906 21.3114C25.9312 19.8873 34.1159 20.7395 39.3384 21.9208Z" fill="#FAFAFA"/>
</svg>
