<svg width="304" height="113" viewBox="0 0 304 113" fill="none" xmlns="http://www.w3.org/2000/svg">
<path d="M172.146 82.2052C172.146 79.1164 172.774 76.3812 174.03 73.9995C175.323 71.6178 177.059 69.7757 179.238 68.4732C181.454 67.1335 183.891 66.4637 186.551 66.4637C188.951 66.4637 191.038 66.9475 192.811 67.915C194.621 68.8454 196.061 70.0176 197.132 71.4317V70.1517C197.132 68.3923 198.559 66.9661 200.318 66.9661C202.077 66.9661 203.504 68.3923 203.504 70.1517V94.5378C203.504 96.2971 202.077 97.7233 200.318 97.7233C198.559 97.7233 197.132 96.2971 197.132 94.5378V93.146C196.061 94.5974 194.602 95.8068 192.756 96.7744C190.909 97.7419 188.804 98.2257 186.44 98.2257C183.818 98.2257 181.417 97.5559 179.238 96.2162C177.059 94.8393 175.323 92.9414 174.03 90.5225C172.774 88.0663 172.146 85.2939 172.146 82.2052ZM197.132 82.3168C197.132 80.1956 196.689 78.3535 195.803 76.7905C194.953 75.2276 193.827 74.0367 192.423 73.218C191.02 72.3993 189.505 71.99 187.88 71.99C186.255 71.99 184.741 72.3993 183.337 73.218C181.934 73.9995 180.789 75.1717 179.903 76.7347C179.053 78.2605 178.628 80.084 178.628 82.2052C178.628 84.3264 179.053 86.187 179.903 87.7872C180.789 89.3874 181.934 90.6155 183.337 91.4714C184.778 92.2901 186.292 92.6995 187.88 92.6995C189.505 92.6995 191.02 92.2901 192.423 91.4714C193.827 90.6527 194.953 89.4619 195.803 87.8989C196.689 86.2987 197.132 84.438 197.132 82.3168Z" fill="#FAFAFA"/>
<path d="M224.201 66.5256C226.564 66.5256 228.651 67.0094 230.461 67.977C232.308 68.9073 233.748 70.0796 234.782 71.4937V70.2136C234.782 68.4543 236.209 67.028 237.968 67.028C239.727 67.028 241.153 68.4543 241.153 70.2136V98.2877C241.153 101.116 240.562 103.628 239.381 105.823C238.199 108.056 236.481 109.805 234.228 111.071C232.012 112.336 229.353 112.969 226.25 112.969C222.114 112.969 218.679 111.982 215.946 110.01C213.734 108.444 212.96 107.432 212.324 105.407C212.023 104.448 212.45 103.42 213.296 102.877C214.703 101.975 216.551 102.917 217.729 104.102C218.618 104.997 219.709 105.38 220.6 105.935C222.188 106.94 224.071 107.442 226.25 107.442C228.799 107.442 230.849 106.661 232.4 105.098C233.988 103.535 234.782 101.265 234.782 98.2877V93.1521C233.711 94.6035 232.252 95.8315 230.406 96.8363C228.596 97.8039 226.527 98.2877 224.201 98.2877C221.541 98.2877 219.104 97.6178 216.888 96.2781C214.708 94.9012 212.973 93.0033 211.68 90.5844C210.424 88.1283 209.796 85.3559 209.796 82.2671C209.796 79.1783 210.424 76.4431 211.68 74.0614C212.973 71.6798 214.708 69.8377 216.888 68.5352C219.104 67.1955 221.541 66.5256 224.201 66.5256ZM234.782 82.3787C234.782 80.2576 234.339 78.4155 233.453 76.8525C232.603 75.2895 231.477 74.0987 230.073 73.28C228.67 72.4613 227.155 72.0519 225.53 72.0519C223.905 72.0519 222.391 72.4613 220.987 73.28C219.584 74.0614 218.439 75.2337 217.552 76.7967C216.703 78.3224 216.278 80.1459 216.278 82.2671C216.278 84.3883 216.703 86.249 217.552 87.8492C218.439 89.4494 219.584 90.6774 220.987 91.5333C222.428 92.352 223.942 92.7614 225.53 92.7614C227.155 92.7614 228.67 92.352 230.073 91.5333C231.477 90.7146 232.603 89.5238 233.453 87.9608C234.339 86.3606 234.782 84.4999 234.782 82.3787Z" fill="#FAFAFA"/>
<path d="M252.56 62.8912C251.415 62.8912 250.454 62.5004 249.679 61.7189C248.903 60.9374 248.515 59.9699 248.515 58.8163C248.515 57.6626 248.903 56.6951 249.679 55.9136C250.454 55.1321 251.415 54.7413 252.56 54.7413C253.668 54.7413 254.61 55.1321 255.385 55.9136C256.161 56.6951 256.549 57.6626 256.549 58.8163C256.549 59.9699 256.161 60.9374 255.385 61.7189C254.61 62.5004 253.668 62.8912 252.56 62.8912ZM252.504 66.9661C254.248 66.9661 255.662 68.3799 255.662 70.124V94.5655C255.662 96.3095 254.248 97.7233 252.504 97.7233C250.76 97.7233 249.346 96.3095 249.346 94.5655V70.124C249.346 68.3799 250.76 66.9661 252.504 66.9661Z" fill="#FAFAFA"/>
<path d="M267.112 56.416C268.856 56.416 270.27 57.8298 270.27 59.5738V94.5655C270.27 96.3095 268.856 97.7233 267.112 97.7233C265.368 97.7233 263.954 96.3095 263.954 94.5655V59.5738C263.954 57.8298 265.368 56.416 267.112 56.416Z" fill="#FAFAFA"/>
<path d="M192.895 46.9292C194.181 45.2885 196.553 45.0006 198.193 46.2861C199.834 47.5717 200.122 49.9438 198.837 51.5845L195.511 55.8283C194.226 57.469 191.854 57.7569 190.213 56.4714C188.572 55.1859 188.284 52.8137 189.57 51.1731L192.895 46.9292Z" fill="#FAFAFA"/>
<path d="M168.557 22.6839C168.557 24.3131 167.157 25.5006 165.527 25.5006H147.041C147.209 27.7136 148.036 29.4908 149.521 30.8321C151.006 32.1733 152.829 32.8439 154.989 32.8439C157.365 32.8439 159.207 32.0882 160.516 30.5767C161.288 29.6849 162.316 28.9711 163.496 28.9711C165.614 28.9711 167.092 31.0807 165.789 32.7505C165.064 33.679 164.198 34.5149 163.19 35.2582C160.997 36.8677 158.263 37.6725 154.989 37.6725C152.323 37.6725 149.926 37.0857 147.8 35.9121C145.707 34.7049 144.054 33.0284 142.839 30.8824C141.657 28.7028 141.067 26.188 141.067 23.3378C141.067 20.4876 141.64 17.9896 142.788 15.8436C143.969 13.664 145.606 11.9875 147.699 10.8139C149.825 9.64026 152.255 9.05346 154.989 9.05346C157.621 9.05346 159.967 9.62349 162.026 10.7636C164.085 11.9036 165.688 13.5131 166.836 15.5921C167.983 17.6375 168.557 20.0014 168.557 22.6839ZM162.532 20.8733C162.499 18.7608 161.739 17.0674 160.254 15.7933C158.769 14.5191 156.93 13.882 154.736 13.882C152.744 13.882 151.04 14.5191 149.623 15.7933C148.205 17.0339 147.361 18.7273 147.091 20.8733H162.532Z" fill="#FAFAFA"/>
<path d="M184.362 37.6725C182.168 37.6725 180.194 37.2868 178.438 36.5156C176.717 35.7109 175.35 34.6379 174.338 33.2966C173.982 32.813 173.684 32.3108 173.445 31.7898C172.721 30.2152 174.16 28.7196 175.893 28.7196C177.476 28.7196 178.74 30.0699 179.837 31.2113C179.996 31.3765 180.171 31.5351 180.362 31.6871C181.409 32.4583 182.708 32.8439 184.26 32.8439C185.881 32.8439 187.129 32.5422 188.007 31.9386C188.918 31.3015 189.374 30.4967 189.374 29.5243C189.374 28.4849 188.868 27.7136 187.855 27.2107C186.876 26.7077 185.307 26.1544 183.147 25.5509C181.054 24.9808 179.35 24.4276 178.033 23.8911C176.717 23.3546 175.57 22.5331 174.591 21.4265C173.646 20.32 173.173 18.8614 173.173 17.0507C173.173 15.5753 173.612 14.2341 174.49 13.0269C175.367 11.7863 176.616 10.8139 178.236 10.1097C179.89 9.40554 181.78 9.05346 183.906 9.05346C187.079 9.05346 189.627 9.85821 191.551 11.4677C192.729 12.4166 193.578 13.5782 194.096 14.9526C194.685 16.5178 193.288 17.956 191.616 17.956C190.092 17.956 188.931 16.6451 187.929 15.4969C187.771 15.3159 187.594 15.1464 187.399 14.9885C186.488 14.2508 185.256 13.882 183.704 13.882C182.185 13.882 181.02 14.167 180.21 14.737C179.4 15.3071 178.995 16.0615 178.995 17.0004C178.995 17.7381 179.265 18.3584 179.805 18.8614C180.345 19.3643 181.004 19.7667 181.78 20.0685C182.556 20.3368 183.704 20.6888 185.222 21.1247C187.247 21.6612 188.901 22.2145 190.184 22.7845C191.5 23.321 192.631 24.1258 193.576 25.1988C194.521 26.2718 195.01 27.6969 195.044 29.474C195.044 31.05 194.605 32.4583 193.728 33.699C192.85 34.9396 191.601 35.9121 189.981 36.6162C188.395 37.3204 186.522 37.6725 184.362 37.6725Z" fill="#FAFAFA"/>
<path d="M199.356 23.3378C199.356 20.4876 199.93 17.9896 201.078 15.8436C202.259 13.664 203.879 11.9875 205.938 10.8139C207.997 9.64026 210.359 9.05346 213.025 9.05346C216.401 9.05346 219.185 9.85821 221.379 11.4677C222.557 12.3015 223.533 13.3276 224.305 14.5462C225.401 16.2752 223.882 18.2578 221.835 18.2578C220.527 18.2578 219.42 17.3876 218.618 16.3541C218.224 15.8465 217.761 15.4081 217.227 15.0388C216.114 14.2676 214.713 13.882 213.025 13.882C210.663 13.882 208.773 14.7203 207.355 16.3968C205.971 18.0399 205.28 20.3535 205.28 23.3378C205.28 26.3221 205.971 28.6525 207.355 30.3291C208.773 32.0057 210.663 32.8439 213.025 32.8439C215.546 32.8439 217.423 32.0138 218.657 30.3536C219.425 29.3206 220.512 28.4681 221.799 28.4681C223.845 28.4681 225.33 30.4675 224.2 32.1729C223.43 33.335 222.472 34.3467 221.328 35.2079C219.101 36.8509 216.333 37.6725 213.025 37.6725C210.359 37.6725 207.997 37.0857 205.938 35.9121C203.879 34.7049 202.259 33.0284 201.078 30.8824C199.93 28.7028 199.356 26.188 199.356 23.3378Z" fill="#FAFAFA"/>
<path d="M243.736 37.6725C241.103 37.6725 238.724 37.0857 236.598 35.9121C234.471 34.7049 232.801 33.0284 231.586 30.8824C230.371 28.7028 229.763 26.188 229.763 23.3378C229.763 20.5212 230.387 18.0231 231.636 15.8436C232.885 13.664 234.589 11.9875 236.749 10.8139C238.91 9.64026 241.323 9.05346 243.989 9.05346C246.655 9.05346 249.069 9.64026 251.229 10.8139C253.389 11.9875 255.093 13.664 256.342 15.8436C257.591 18.0231 258.215 20.5212 258.215 23.3378C258.215 26.1544 257.574 28.6525 256.291 30.8321C255.009 33.0116 253.254 34.7049 251.026 35.9121C248.832 37.0857 246.402 37.6725 243.736 37.6725ZM243.736 32.6931C245.221 32.6931 246.605 32.341 247.887 31.6368C249.204 30.9327 250.267 29.8764 251.077 28.4681C251.887 27.0598 252.292 25.3497 252.292 23.3378C252.292 21.3259 251.904 19.6326 251.127 18.2578C250.351 16.8495 249.322 15.7933 248.039 15.0891C246.757 14.3849 245.373 14.0329 243.888 14.0329C242.403 14.0329 241.019 14.3849 239.736 15.0891C238.488 15.7933 237.492 16.8495 236.749 18.2578C236.007 19.6326 235.636 21.3259 235.636 23.3378C235.636 26.3221 236.395 28.6358 237.914 30.2788C239.466 31.8883 241.407 32.6931 243.736 32.6931Z" fill="#FAFAFA"/>
<path d="M266.806 0C268.4 0 269.692 1.29198 269.692 2.88571V34.3341C269.692 35.9278 268.4 37.2198 266.806 37.2198C265.212 37.2198 263.92 35.9278 263.92 34.3341V2.88572C263.92 1.29198 265.212 0 266.806 0Z" fill="#FAFAFA"/>
<path d="M275.345 23.2372C275.345 20.4541 275.919 17.9896 277.067 15.8436C278.248 13.6976 279.834 12.0377 281.826 10.8642C283.851 9.65702 286.078 9.05346 288.508 9.05346C290.702 9.05346 292.609 9.48937 294.229 10.3612C295.883 11.1995 297.199 12.2557 298.178 13.5299V12.4172C298.178 10.8094 299.481 9.50613 301.089 9.50613C302.697 9.50613 304 10.8094 304 12.4172V34.3088C304 35.9165 302.697 37.2198 301.089 37.2198C299.481 37.2198 298.178 35.9165 298.178 34.3088V33.0954C297.199 34.4032 295.866 35.4929 294.178 36.3647C292.491 37.2365 290.567 37.6725 288.407 37.6725C286.011 37.6725 283.817 37.0689 281.826 35.8618C279.834 34.6211 278.248 32.911 277.067 30.7315C275.919 28.5184 275.345 26.0203 275.345 23.2372ZM298.178 23.3378C298.178 21.4265 297.773 19.7667 296.963 18.3584C296.187 16.9501 295.157 15.8771 293.875 15.1394C292.592 14.4017 291.208 14.0329 289.723 14.0329C288.238 14.0329 286.854 14.4017 285.572 15.1394C284.289 15.8436 283.243 16.8998 282.433 18.3081C281.657 19.6829 281.269 21.3259 281.269 23.2372C281.269 25.1485 281.657 26.8251 282.433 28.2669C283.243 29.7088 284.289 30.8153 285.572 31.5865C286.888 32.3242 288.272 32.6931 289.723 32.6931C291.208 32.6931 292.592 32.3242 293.875 31.5865C295.157 30.8488 296.187 29.7758 296.963 28.3675C297.773 26.9257 298.178 25.2491 298.178 23.3378Z" fill="#FAFAFA"/>
<path fill-rule="evenodd" clip-rule="evenodd" d="M34.4999 42.3979C35.6498 24.1607 50.5702 9.96568 68.5895 9.96568H91.7321C116.532 9.96568 136.916 29.1407 139.255 53.6693L139.299 53.6971C160.378 66.8341 151.197 99.7663 126.457 99.7663H75.7629C54.8835 99.7663 37.7304 84.4073 34.2886 64.4837C29.2816 65.7572 22.5403 68.2142 11.5934 73.585C7.57877 75.5546 2.7499 73.8508 0.807768 69.7794C-1.13436 65.7079 0.545692 60.8107 4.56028 58.8411C19.1706 51.673 27.5003 49.0393 34.1626 47.7474L34.4999 42.3979ZM50.2008 61.6567C87.3362 55.5824 117.132 61.8146 127.838 65.7783L130.844 67.6513C138.044 72.1386 134.908 83.3877 126.457 83.3877H75.7629C62.8987 83.3877 52.3294 73.9292 50.2008 61.6567ZM121.243 46.9139C116.692 34.8841 105.195 26.3443 91.7321 26.3443H68.5895C59.0894 26.3443 51.2231 33.8281 50.6169 43.4431L50.5165 45.0356C79.9211 40.6464 105.147 43.2728 121.243 46.9139Z" fill="#FAFAFA"/>
</svg>
