<svg width="72" height="66" viewBox="0 0 72 66" fill="none" xmlns="http://www.w3.org/2000/svg">
<path d="M47.1121 37.7929L56.3084 28.5967M31.6457 31.1047L38.3339 37.7929M12.7307 41.973L23.599 31.1047" stroke="#2954C2" stroke-width="3.34409" stroke-linecap="round" stroke-linejoin="round"/>
<path d="M61.0635 28.5967C63.6895 28.5967 65.8184 26.4678 65.8184 23.8418C65.8184 21.2157 63.6895 19.0869 61.0635 19.0869C58.4374 19.0869 56.3086 21.2157 56.3086 23.8418C56.3086 26.4678 58.4374 28.5967 61.0635 28.5967Z" stroke="#2954C2" stroke-width="3.34409" stroke-linecap="round" stroke-linejoin="round"/>
<path d="M42.6709 44.7944C45.2969 44.7944 47.4258 42.6656 47.4258 40.0395C47.4258 37.4135 45.2969 35.2847 42.6709 35.2847C40.0448 35.2847 37.916 37.4135 37.916 40.0395C37.916 42.6656 40.0448 44.7944 42.6709 44.7944Z" stroke="#2954C2" stroke-width="3.34409" stroke-linecap="round" stroke-linejoin="round"/>
<path d="M28.0403 32.0449C30.6663 32.0449 32.7952 29.9161 32.7952 27.29C32.7952 24.664 30.6663 22.5352 28.0403 22.5352C25.4142 22.5352 23.2854 24.664 23.2854 27.29C23.2854 29.9161 25.4142 32.0449 28.0403 32.0449Z" stroke="#2954C2" stroke-width="3.34409" stroke-linecap="round" stroke-linejoin="round"/>
<path d="M9.12524 50.751C11.7513 50.751 13.8801 48.6221 13.8801 45.9961C13.8801 43.37 11.7513 41.2412 9.12524 41.2412C6.49919 41.2412 4.37036 43.37 4.37036 45.9961C4.37036 48.6221 6.49919 50.751 9.12524 50.751Z" stroke="#2954C2" stroke-width="3.34409" stroke-linecap="round" stroke-linejoin="round"/>
</svg>
