<svg width="44" height="64" viewBox="0 0 44 64" fill="none" xmlns="http://www.w3.org/2000/svg">
<path d="M43.1222 41.938C43.1213 44.8015 42.12 47.5787 40.284 49.81C38.8301 51.5772 36.9217 52.9179 34.7694 53.7048C33.7972 54.0602 32.7748 53.4694 32.4407 52.4897C32.0326 51.2929 32.8192 50.0274 33.9648 49.4921C34.3745 49.3006 34.7691 49.0771 35.1447 48.8232C36.1878 48.1178 37.0578 47.1951 37.6921 46.1215H32.4119C31.2756 46.1215 30.186 45.6803 29.3825 44.895C28.5791 44.1096 28.1277 43.0445 28.1277 41.9338V33.5585C28.1277 32.4479 28.5791 31.3827 29.3825 30.5974C30.186 29.812 31.2756 29.3708 32.4119 29.3708H38.7053C38.1826 25.3233 36.1668 21.6012 33.0361 18.9031C29.9055 16.205 25.8752 14.7163 21.7015 14.7163C17.5278 14.7163 13.4975 16.205 10.3669 18.9031C7.23625 21.6012 5.22045 25.3233 4.69772 29.3708H10.9911C12.1274 29.3708 13.217 29.812 14.0205 30.5974C14.8239 31.3827 15.2753 32.4479 15.2753 33.5585V41.9338C15.2753 43.0445 14.8239 44.1096 14.0205 44.895C13.217 45.6803 12.1274 46.1215 10.9911 46.1215H4.56491C3.42868 46.1215 2.33899 45.6803 1.53556 44.895C0.732126 44.1096 0.280762 43.0445 0.280762 41.9338V31.4647C0.280762 19.9005 9.87083 10.5264 21.7015 10.5264C33.5322 10.5264 43.1222 19.9005 43.1222 31.4647V41.938ZM38.8381 41.9338V33.5585H32.4119V41.9338H38.8381ZM4.56491 33.5585V41.9338H10.9911V33.5585H4.56491Z" fill="#2954C2"/>
</svg>
