<svg width="1117" height="373" viewBox="0 0 1117 373" fill="none" xmlns="http://www.w3.org/2000/svg">
<path d="M186.275 258.189C162.53 225.837 114.237 225.749 90.3741 258.014L6 372.094L267.854 369.335L186.275 258.189Z" fill="url(#paint0_linear_67_106)"/>
<path d="M428.148 225.362C411.906 177.591 344.977 175.864 326.293 222.734L267.854 369.335L849.64 363.146L789.073 148.697C777.881 109.072 721.286 110.328 711.864 150.411L691.174 238.427C685.294 263.44 649.131 261.703 645.675 236.242C642.108 209.961 604.334 209.328 599.889 235.475L590.764 289.15C586.82 312.352 555.732 317.402 544.645 296.643C534.864 278.326 508.053 279.918 499.964 299.043C490.963 320.324 460.227 319.712 452.789 297.835L428.148 225.362Z" fill="url(#paint1_linear_67_106)"/>
<path d="M1044.57 267.878C1023.26 238.212 980.512 234.544 954.458 260.146L849.64 363.146L1111 360.338L1044.57 267.878Z" fill="url(#paint2_linear_67_106)"/>
<path d="M6 364.256L89.3107 251.614C113.483 218.932 162.57 219.532 185.935 252.797L200.934 274.151C228.14 312.882 287.473 305.938 304.999 261.971L323.764 214.897C342.448 168.027 409.377 169.754 425.619 217.525L450.26 289.998C457.698 311.875 488.434 312.487 497.435 291.205V291.205C505.523 272.081 532.334 270.489 542.116 288.805V288.805C553.203 309.565 584.291 304.514 588.235 281.312L596.806 230.897C601.348 204.18 639.946 204.826 643.59 231.68V231.68C647.09 257.464 683.582 259.54 689.983 234.32L709.868 155.971C719.673 117.339 774.096 116.081 785.676 154.219L819.623 266.02C832.777 309.342 887.547 322.727 919.2 290.355L954.447 254.307C980.321 227.845 1023.81 231.138 1045.4 261.196L1111 352.501" stroke="#346AF5" stroke-width="14.1064"/>
<g opacity="0.35" filter="url(#filter0_f_67_106)">
<rect x="462" y="197" width="107.257" height="56.5714" rx="8.14286" fill="#2A4BF7"/>
<path d="M492.715 221.514V219.413H496.64V231.286H494.295V221.514H492.715ZM506.449 221.14L502.117 231.286H499.804L504.169 221.4H498.599V219.446H506.449V221.14ZM517.504 219.918V231.286H515.224V226.449H510.355V231.286H508.075V219.918H510.355V224.592H515.224V219.918H517.504ZM519.52 222.54C519.575 221.455 519.955 220.619 520.66 220.032C521.377 219.435 522.316 219.137 523.478 219.137C524.27 219.137 524.949 219.278 525.514 219.56C526.078 219.831 526.502 220.206 526.784 220.684C527.077 221.151 527.224 221.683 527.224 222.28C527.224 222.964 527.044 223.545 526.686 224.022C526.339 224.489 525.921 224.804 525.432 224.967V225.032C526.062 225.227 526.55 225.575 526.898 226.074C527.256 226.574 527.435 227.214 527.435 227.996C527.435 228.647 527.283 229.228 526.979 229.739C526.686 230.249 526.246 230.651 525.66 230.944C525.085 231.226 524.39 231.367 523.576 231.367C522.349 231.367 521.35 231.058 520.579 230.439C519.808 229.82 519.401 228.908 519.358 227.703H521.572C521.594 228.235 521.773 228.664 522.11 228.989C522.457 229.304 522.93 229.462 523.527 229.462C524.08 229.462 524.504 229.31 524.797 229.006C525.101 228.691 525.253 228.289 525.253 227.801C525.253 227.149 525.047 226.682 524.634 226.4C524.222 226.118 523.581 225.977 522.712 225.977H522.24V224.104H522.712C524.254 224.104 525.025 223.588 525.025 222.557C525.025 222.09 524.884 221.726 524.602 221.465C524.33 221.205 523.934 221.075 523.413 221.075C522.902 221.075 522.506 221.216 522.224 221.498C521.952 221.769 521.795 222.117 521.752 222.54H519.52ZM537.217 221.384H531.94V224.169C532.168 223.887 532.494 223.659 532.918 223.485C533.341 223.3 533.792 223.208 534.269 223.208C535.138 223.208 535.849 223.398 536.403 223.778C536.956 224.158 537.358 224.647 537.608 225.244C537.858 225.83 537.982 226.46 537.982 227.133C537.982 228.381 537.624 229.386 536.908 230.146C536.202 230.906 535.192 231.286 533.878 231.286C532.641 231.286 531.653 230.976 530.914 230.357C530.176 229.739 529.758 228.93 529.66 227.931H531.875C531.973 228.365 532.19 228.713 532.527 228.973C532.874 229.234 533.314 229.364 533.846 229.364C534.486 229.364 534.97 229.163 535.295 228.761C535.621 228.36 535.784 227.828 535.784 227.165C535.784 226.492 535.616 225.982 535.279 225.635C534.953 225.276 534.47 225.097 533.83 225.097C533.374 225.097 532.994 225.211 532.69 225.439C532.386 225.667 532.168 225.971 532.038 226.351H529.856V219.381H537.217V221.384Z" fill="#346AF5"/>
</g>
<g opacity="0.35" filter="url(#filter1_f_67_106)">
<rect x="692" y="47" width="107.257" height="56.5714" rx="8.14286" fill="#2A4BF7"/>
<path d="M722.715 71.5142V69.4134H726.64V81.2856H724.295V71.5142H722.715ZM736.449 71.1396L732.117 81.2856H729.804L734.169 71.4002H728.599V69.4459H736.449V71.1396ZM747.504 69.9182V81.2856H745.224V76.4488H740.355V81.2856H738.075V69.9182H740.355V74.5922H745.224V69.9182H747.504ZM749.52 72.5402C749.575 71.4545 749.955 70.6185 750.66 70.0322C751.377 69.4351 752.316 69.1365 753.478 69.1365C754.27 69.1365 754.949 69.2776 755.514 69.5599C756.078 69.8314 756.502 70.2059 756.784 70.6836C757.077 71.1505 757.224 71.6825 757.224 72.2796C757.224 72.9636 757.044 73.5445 756.686 74.0222C756.339 74.4891 755.921 74.8039 755.432 74.9668V75.0319C756.062 75.2274 756.55 75.5748 756.898 76.0742C757.256 76.5736 757.435 77.2142 757.435 77.9959C757.435 78.6474 757.283 79.2282 756.979 79.7385C756.686 80.2488 756.246 80.6505 755.66 80.9436C755.085 81.2259 754.39 81.3671 753.576 81.3671C752.349 81.3671 751.35 81.0576 750.579 80.4388C749.808 79.8199 749.401 78.9079 749.358 77.7028H751.572C751.594 78.2348 751.773 78.6636 752.11 78.9894C752.457 79.3042 752.93 79.4616 753.527 79.4616C754.08 79.4616 754.504 79.3096 754.797 79.0056C755.101 78.6908 755.253 78.2891 755.253 77.8005C755.253 77.1491 755.047 76.6822 754.634 76.3999C754.222 76.1176 753.581 75.9765 752.712 75.9765H752.24V74.1036H752.712C754.254 74.1036 755.025 73.5879 755.025 72.5565C755.025 72.0896 754.884 71.7259 754.602 71.4654C754.33 71.2048 753.934 71.0745 753.413 71.0745C752.902 71.0745 752.506 71.2156 752.224 71.4979C751.952 71.7694 751.795 72.1168 751.752 72.5402H749.52ZM767.217 71.3839H761.94V74.1688C762.168 73.8865 762.494 73.6585 762.918 73.4848C763.341 73.3002 763.792 73.2079 764.269 73.2079C765.138 73.2079 765.849 73.3979 766.403 73.7779C766.956 74.1579 767.358 74.6465 767.608 75.2436C767.858 75.8299 767.982 76.4596 767.982 77.1328C767.982 78.3814 767.624 79.3856 766.908 80.1456C766.202 80.9056 765.192 81.2856 763.878 81.2856C762.641 81.2856 761.653 80.9762 760.914 80.3574C760.176 79.7385 759.758 78.9296 759.66 77.9308H761.875C761.973 78.3651 762.19 78.7125 762.527 78.9731C762.874 79.2336 763.314 79.3639 763.846 79.3639C764.486 79.3639 764.97 79.1631 765.295 78.7614C765.621 78.3596 765.784 77.8276 765.784 77.1654C765.784 76.4922 765.616 75.9819 765.279 75.6345C764.953 75.2762 764.47 75.0971 763.83 75.0971C763.374 75.0971 762.994 75.2111 762.69 75.4391C762.386 75.6671 762.168 75.9711 762.038 76.3511H759.856V69.3808H767.217V71.3839Z" fill="#346AF5"/>
</g>
<rect x="466.564" y="199.356" width="99.7119" height="52.7639" rx="7.25018" fill="white"/>
<path d="M494.969 222.08V220.111H498.648V231.238H496.45V222.08H494.969ZM507.841 221.729L503.781 231.238H501.614L505.704 221.973H500.484V220.141H507.841V221.729ZM518.203 220.584V231.238H516.066V226.705H511.502V231.238H509.365V220.584H511.502V224.964H516.066V220.584H518.203ZM520.092 223.041C520.143 222.024 520.5 221.24 521.161 220.691C521.833 220.131 522.713 219.851 523.802 219.851C524.544 219.851 525.18 219.983 525.709 220.248C526.239 220.502 526.635 220.853 526.9 221.301C527.175 221.739 527.312 222.237 527.312 222.797C527.312 223.438 527.144 223.983 526.808 224.43C526.483 224.868 526.091 225.163 525.633 225.316V225.377C526.223 225.56 526.681 225.885 527.007 226.353C527.343 226.822 527.511 227.422 527.511 228.155C527.511 228.765 527.368 229.309 527.083 229.788C526.808 230.266 526.396 230.643 525.847 230.917C525.308 231.182 524.656 231.314 523.893 231.314C522.743 231.314 521.807 231.024 521.085 230.444C520.362 229.864 519.981 229.009 519.94 227.88H522.016C522.036 228.378 522.204 228.78 522.519 229.086C522.845 229.381 523.288 229.528 523.847 229.528C524.366 229.528 524.763 229.386 525.038 229.101C525.323 228.806 525.465 228.429 525.465 227.971C525.465 227.361 525.272 226.923 524.885 226.659C524.499 226.394 523.898 226.262 523.084 226.262H522.641V224.507H523.084C524.529 224.507 525.252 224.023 525.252 223.057C525.252 222.619 525.119 222.278 524.855 222.034C524.6 221.79 524.229 221.668 523.74 221.668C523.262 221.668 522.891 221.8 522.626 222.064C522.372 222.319 522.224 222.644 522.184 223.041H520.092ZM536.678 221.958H531.733V224.568C531.947 224.303 532.252 224.089 532.649 223.927C533.046 223.754 533.468 223.667 533.916 223.667C534.73 223.667 535.396 223.845 535.915 224.201C536.434 224.557 536.811 225.015 537.045 225.575C537.279 226.125 537.396 226.715 537.396 227.346C537.396 228.516 537.06 229.457 536.388 230.169C535.727 230.882 534.781 231.238 533.549 231.238C532.389 231.238 531.463 230.948 530.771 230.368C530.079 229.788 529.688 229.03 529.596 228.094H531.672C531.763 228.501 531.967 228.826 532.282 229.07C532.608 229.315 533.02 229.437 533.519 229.437C534.119 229.437 534.572 229.248 534.877 228.872C535.183 228.495 535.335 227.997 535.335 227.376C535.335 226.745 535.177 226.267 534.862 225.941C534.557 225.606 534.104 225.438 533.504 225.438C533.076 225.438 532.72 225.544 532.435 225.758C532.15 225.972 531.947 226.257 531.825 226.613H529.779V220.08H536.678V221.958Z" fill="#346AF5"/>
<rect x="466.564" y="199.356" width="99.7119" height="52.7639" rx="7.25018" stroke="#346AF5" stroke-width="0.763177"/>
<rect x="695.249" y="49.3977" width="100.712" height="52.7639" rx="7.25018" fill="white"/>
<path d="M723.655 72.1217V70.1527H727.333V81.2798H725.135V72.1217H723.655ZM736.527 71.7706L732.466 81.2798H730.299L734.39 72.0148H729.17V70.1832H736.527V71.7706ZM746.888 70.6258V81.2798H744.751V76.7465H740.188V81.2798H738.051V70.6258H740.188V75.0065H744.751V70.6258H746.888ZM748.656 79.1124V77.4334L753.647 70.29H756.135V77.2502H757.478V79.1124H756.135V81.2798H753.998V79.1124H748.656ZM754.135 72.5796L751.006 77.2502H754.135V72.5796ZM766.318 71.9996H761.372V74.6096C761.586 74.3451 761.891 74.1314 762.288 73.9685C762.685 73.7956 763.107 73.7091 763.555 73.7091C764.369 73.7091 765.035 73.8871 765.554 74.2433C766.073 74.5994 766.45 75.0573 766.684 75.617C766.918 76.1665 767.035 76.7567 767.035 77.3876C767.035 78.5578 766.699 79.499 766.028 80.2113C765.366 80.9236 764.42 81.2798 763.189 81.2798C762.029 81.2798 761.103 80.9898 760.411 80.4098C759.719 79.8297 759.327 79.0717 759.235 78.1355H761.311C761.403 78.5425 761.606 78.8681 761.922 79.1124C762.247 79.3566 762.659 79.4787 763.158 79.4787C763.758 79.4787 764.211 79.2904 764.517 78.9139C764.822 78.5374 764.974 78.0388 764.974 77.4181C764.974 76.7872 764.817 76.309 764.501 75.9833C764.196 75.6475 763.743 75.4796 763.143 75.4796C762.715 75.4796 762.359 75.5865 762.074 75.8002C761.789 76.0139 761.586 76.2988 761.464 76.6549H759.418V70.1221H766.318V71.9996Z" fill="#346AF5"/>
<rect x="695.249" y="49.3977" width="100.712" height="52.7639" rx="7.25018" stroke="#346AF5" stroke-width="0.763177"/>
<defs>
<filter id="filter0_f_67_106" x="450" y="185" width="131.257" height="80.5713" filterUnits="userSpaceOnUse" color-interpolation-filters="sRGB">
<feFlood flood-opacity="0" result="BackgroundImageFix"/>
<feBlend mode="normal" in="SourceGraphic" in2="BackgroundImageFix" result="shape"/>
<feGaussianBlur stdDeviation="6" result="effect1_foregroundBlur_67_106"/>
</filter>
<filter id="filter1_f_67_106" x="680" y="35" width="131.257" height="80.5713" filterUnits="userSpaceOnUse" color-interpolation-filters="sRGB">
<feFlood flood-opacity="0" result="BackgroundImageFix"/>
<feBlend mode="normal" in="SourceGraphic" in2="BackgroundImageFix" result="shape"/>
<feGaussianBlur stdDeviation="6" result="effect1_foregroundBlur_67_106"/>
</filter>
<linearGradient id="paint0_linear_67_106" x1="539.287" y1="56.0457" x2="539.287" y2="372.363" gradientUnits="userSpaceOnUse">
<stop stop-color="#8E8CF0"/>
<stop offset="1" stop-color="#E7E7FC" stop-opacity="0"/>
</linearGradient>
<linearGradient id="paint1_linear_67_106" x1="539.287" y1="56.0457" x2="539.287" y2="372.363" gradientUnits="userSpaceOnUse">
<stop stop-color="#8E8CF0"/>
<stop offset="1" stop-color="#E7E7FC" stop-opacity="0"/>
</linearGradient>
<linearGradient id="paint2_linear_67_106" x1="539.287" y1="56.0457" x2="539.287" y2="372.363" gradientUnits="userSpaceOnUse">
<stop stop-color="#8E8CF0"/>
<stop offset="1" stop-color="#E7E7FC" stop-opacity="0"/>
</linearGradient>
</defs>
</svg>
